<?xml version="1.0" encoding="utf-8"?><!-- Uploaded to: SVG Repo, www.svgrepo.com, Generator: SVG Repo Mixer Tools -->
<svg width="32px" height="32px" viewBox="0 0 512 512" enable-background="new 0 0 512 512" xmlns="http://www.w3.org/2000/svg" xml:space="preserve" fill="none">
    <path d="M258.8,507.2C120.4,507.8,6.6,392.6,9.9,251.9C13,118,124,7.2,262,8.7C398.7,10.2,511.8,124,508.1,264.9   C504.6,398.3,394.6,507.9,258.8,507.2z M477.8,257.9c-1-125.3-102.4-221.7-222-219.9C139.3,39.7,40.2,134.7,40.4,258.3   c0.2,125.3,102.4,221.6,222,219.7C378.8,476.2,476.9,381.4,477.8,257.9z" 
    fill="#FECC52"
    />
    <path d="M 324.2895 150.2155 H 128.4579 v 211.3871 h 54.5048 V 292.7481 h 104.4274 l 47.6314 68.734 h 61.0165 l -52.5755 -69.0957 c 16.2791 -2.5323 28.0965 -8.5616 35.2111 -18.0879 c 7.2352 -9.5263 10.7321 -24.7201 10.7321 -44.9786 v -15.7968 c 0 -12.0586 -1.3264 -21.5849 -3.6176 -28.82 c -2.2911 -7.2352 -6.1499 -13.6262 -11.6968 -19.2937 c -5.9087 -5.4264 -12.4204 -9.1645 -20.2584 -11.6968 c -7.8381 -2.1705 -17.6055 -3.497 -29.6641 -3.497 z m -8.8028 95.9864 H 182.9627 V 196.7617 h 132.5239 c 7.4763 0 12.7821 1.2059 15.3144 3.497 c 2.6529 2.1705 4.2205 6.3911 4.2205 12.2998 v 17.7261 c 0 6.3911 -1.6882 10.491 -4.2205 12.6615 s -7.8381 3.1352 -15.3144 3.1352 z"
    fill="#FECC52"
    />
    <path d="M162.324 45.568c5.52 0 9.998-4.477 9.998-10s-4.478-10-9.998-10c-5.524 0-10.002 4.477-10.002 10s4.478 10 10.002 10z" 
    fill="#FECC52"
    />
</svg>