<?xml version="1.0" ?>
<svg xmlns="http://www.w3.org/2000/svg" xmlns:xlink="http://www.w3.org/1999/xlink" version="1.1" id="Layer_1" width="32px" height="32px" viewBox="0 0 512 512" enable-background="new 0 0 512 512" xml:space="preserve">
<path 
d="M258.8,507.2C120.4,507.8,6.6,392.6,9.9,251.9C13,118,124,7.2,262,8.7C398.7,10.2,511.8,124,508.1,264.9   C504.6,398.3,394.6,507.9,258.8,507.2z M477.8,257.9c-1-125.3-102.4-221.7-222-219.9C139.3,39.7,40.2,134.7,40.4,258.3   c0.2,125.3,102.4,221.6,222,219.7C378.8,476.2,476.9,381.4,477.8,257.9z" 
fill="#FECC52" 
/>
<polygon fill="#FECC52" points="413.77,77.885 244.06,437.455 185.17,378.565 133.44,326.835 133.45,326.835 297.83,210.015  "/>
<polygon fill="#FECC52" points="486,74.545 483.77,77.885 297.83,210.015 95.68,289.075 26,219.395  "/>
<polygon fill="#CCCCCD" points="185.17,378.565 133.44,430.295 133.43,326.835 133.44,326.835  "/>
<polygon fill="#BBBBBB" points="297.83,210.015 133.45,326.835 133.43,326.835 133.44,430.295 95.68,289.075  "/>
</svg>