<?xml version="1.0" standalone="no"?>
<!DOCTYPE svg PUBLIC "-//W3C//DTD SVG 20010904//EN"
 "http://www.w3.org/TR/2001/REC-SVG-20010904/DTD/svg10.dtd">
<svg version="1.0" xmlns="http://www.w3.org/2000/svg"
 width="1468.000000pt" height="1468.000000pt" viewBox="0 0 1468.000000 1468.000000"
 preserveAspectRatio="xMidYMid meet">
<metadata>
Created by potrace 1.14, written by Peter Selinger 2001-2017
</metadata>
<g transform="translate(0.000000,1468.000000) scale(0.100000,-0.100000)"
fill="#000000" stroke="none">
<path d="M6561 11794 c-8 -4 -25 -19 -38 -33 -21 -23 -23 -33 -20 -88 l5 -63
-34 -6 c-19 -3 -37 -10 -40 -15 -3 -5 -40 -9 -82 -9 l-77 0 -2 50 c-1 43 -6
56 -32 80 -27 26 -38 30 -91 30 -55 0 -168 -30 -196 -51 -6 -5 -14 -6 -17 -2
-4 3 -7 2 -7 -4 0 -6 -12 -14 -27 -18 -15 -3 -30 -10 -33 -14 -3 -4 -24 -17
-48 -29 -34 -18 -60 -22 -129 -22 -47 0 -102 -4 -122 -9 -20 -6 -64 -15 -97
-22 -44 -8 -71 -20 -97 -43 -48 -43 -54 -74 -26 -131 l23 -46 -26 -22 c-30
-26 -76 -50 -129 -66 -58 -18 -67 -15 -79 30 -6 22 -20 49 -32 61 -38 38 -150
23 -206 -29 -7 -7 -17 -13 -21 -13 -8 0 -51 -37 -127 -110 -23 -21 -44 -37
-46 -34 -3 2 -12 -6 -21 -20 -11 -16 -30 -26 -57 -31 -22 -4 -42 -10 -45 -14
-2 -5 -25 -14 -50 -21 -25 -7 -45 -16 -45 -20 0 -4 -14 -10 -31 -14 -16 -3
-36 -11 -44 -18 -32 -29 -43 -36 -63 -42 -12 -4 -22 -11 -22 -15 0 -4 -9 -18
-20 -31 -11 -13 -20 -36 -20 -53 0 -33 32 -92 55 -101 21 -8 19 -23 -5 -43
-11 -10 -20 -21 -20 -25 0 -24 -109 -98 -145 -98 -8 0 -15 8 -15 18 0 9 -13
29 -29 45 -69 65 -165 15 -266 -138 -22 -33 -43 -62 -47 -65 -3 -3 -10 -18
-13 -33 -4 -15 -11 -27 -15 -27 -4 0 -13 -13 -20 -30 -7 -16 -17 -30 -22 -30
-5 0 -14 -5 -21 -10 -7 -6 -43 -34 -82 -63 -87 -64 -163 -142 -171 -173 -3
-13 -10 -24 -15 -24 -5 0 -9 -21 -9 -47 0 -39 5 -50 32 -75 17 -15 38 -28 46
-28 12 0 13 -9 8 -42 -4 -24 -11 -44 -16 -46 -6 -2 -10 -10 -10 -17 0 -7 -13
-25 -30 -38 -16 -14 -30 -30 -30 -35 0 -5 -7 -15 -15 -22 -13 -11 -19 -9 -38
7 -12 11 -36 28 -54 38 -29 17 -33 17 -65 2 -19 -9 -47 -33 -64 -54 -36 -45
-93 -180 -101 -240 -3 -24 -10 -43 -14 -43 -5 0 -9 -14 -9 -32 0 -31 -44 -108
-61 -108 -5 0 -9 -6 -9 -13 0 -7 -13 -27 -29 -45 -16 -17 -32 -41 -36 -52 -3
-11 -10 -20 -15 -20 -18 0 -51 -88 -57 -151 -5 -59 -3 -69 15 -85 42 -39 52
-44 82 -44 27 0 30 -3 30 -32 0 -38 -15 -88 -44 -146 -23 -48 -35 -60 -45 -45
-8 14 -85 26 -110 18 -11 -3 -34 -24 -51 -45 -28 -36 -33 -50 -41 -137 -10
-110 -10 -102 -3 -201 4 -54 2 -82 -9 -105 -9 -18 -19 -45 -23 -62 -4 -16 -10
-34 -14 -40 -4 -5 -11 -26 -15 -45 -4 -19 -12 -41 -18 -48 -6 -8 -11 -58 -11
-114 -1 -99 -1 -100 29 -124 23 -18 42 -24 81 -24 l52 0 7 -65 c4 -37 2 -87
-4 -117 l-11 -53 -53 3 c-45 3 -56 -1 -79 -23 -16 -14 -28 -32 -28 -40 0 -8
-4 -15 -10 -15 -6 0 -10 -30 -10 -70 0 -38 4 -70 9 -70 5 0 11 -22 15 -49 4
-28 13 -62 21 -78 8 -15 15 -35 15 -44 0 -9 7 -33 15 -53 13 -29 14 -62 7
-188 -12 -235 17 -318 113 -318 24 0 55 4 69 10 23 8 26 5 45 -34 12 -23 21
-48 21 -54 0 -7 5 -12 10 -12 6 0 10 -28 10 -64 l0 -63 -44 -5 c-50 -6 -81
-30 -91 -71 -8 -31 13 -157 26 -157 5 0 9 -6 9 -13 0 -8 9 -24 20 -37 11 -13
20 -27 20 -32 0 -9 36 -62 57 -86 7 -7 13 -16 13 -20 0 -4 13 -22 30 -40 25
-29 34 -33 72 -30 33 2 44 7 46 22 2 10 -1 22 -7 26 -6 3 -14 38 -18 76 -3 38
-9 71 -13 74 -10 7 -18 180 -9 180 5 0 14 -10 20 -22 7 -13 15 -25 19 -28 4
-3 20 -30 35 -60 45 -91 58 -114 72 -128 7 -7 13 -22 13 -33 0 -11 4 -27 9
-37 5 -9 14 -29 20 -44 10 -26 15 -28 66 -28 54 0 55 0 55 30 0 17 -4 30 -9
30 -21 0 -104 210 -89 226 3 2 42 -14 87 -36 92 -47 94 -50 61 -143 -11 -31
-20 -68 -20 -82 0 -22 4 -25 38 -25 42 0 57 16 67 74 4 20 11 39 16 42 5 3 9
14 9 25 0 10 3 19 6 19 9 0 68 -34 74 -42 3 -4 30 -20 60 -36 92 -47 125 -67
128 -74 5 -11 140 -10 147 1 6 12 -44 61 -62 61 -7 0 -13 3 -13 8 0 8 -7 12
-89 52 -28 14 -51 28 -51 32 0 5 -7 8 -15 8 -8 0 -15 4 -15 9 0 5 -12 12 -26
15 -27 7 -99 49 -108 64 -6 9 11 89 24 113 5 9 12 38 15 65 4 27 11 54 15 59
4 6 11 36 14 68 4 31 12 57 17 57 5 0 9 10 9 23 0 12 3 32 6 43 5 20 7 20 37
-13 18 -20 53 -58 80 -86 26 -28 47 -53 47 -57 0 -3 21 -28 47 -55 51 -52 60
-84 62 -216 1 -31 4 -59 8 -63 4 -3 9 -41 11 -84 5 -100 13 -114 60 -110 l37
3 -3 100 c-2 55 -8 118 -12 140 -10 44 -4 60 12 31 6 -10 18 -26 27 -35 39
-39 72 -89 62 -96 -19 -11 -11 -25 14 -25 28 0 74 -44 75 -71 0 -31 34 -49 93
-49 53 0 57 2 57 23 -1 12 -14 33 -30 47 -17 13 -30 27 -30 30 0 3 36 3 79 -1
44 -4 135 -7 203 -8 68 -1 166 -5 218 -11 52 -5 275 -14 495 -20 220 -6 425
-14 455 -17 117 -10 159 -11 610 -18 272 -5 470 -12 477 -17 7 -6 29 -10 50
-9 21 0 292 2 603 5 934 7 1844 21 1856 29 7 4 14 -1 17 -13 4 -17 14 -20 59
-20 45 0 58 5 87 30 23 20 44 30 66 30 28 0 33 -4 39 -30 5 -26 10 -30 38 -30
44 0 55 20 63 111 13 130 29 176 82 229 27 26 55 56 65 66 9 11 30 31 47 46
17 15 31 31 31 36 0 4 14 20 32 36 30 26 33 26 39 9 4 -10 8 -37 8 -60 1 -23
5 -44 10 -47 5 -3 12 -34 16 -68 4 -35 11 -67 15 -73 5 -5 12 -44 18 -85 5
-41 12 -82 16 -91 6 -13 0 -18 -28 -23 -20 -4 -36 -11 -36 -15 0 -5 -13 -14
-30 -20 -32 -11 -40 -35 -16 -48 8 -4 62 -7 120 -5 105 3 106 4 106 28 0 14 6
24 14 24 7 0 19 7 26 15 7 8 23 15 36 15 13 0 39 9 59 20 45 25 46 25 35 -6
-14 -35 -12 -80 3 -92 16 -14 80 -9 85 6 2 7 8 10 12 7 5 -3 14 11 21 30 12
31 20 39 40 37 4 -1 5 8 2 18 -3 11 0 20 6 20 6 0 11 8 11 18 0 10 9 25 20 35
19 16 20 15 17 -76 l-2 -92 34 -3 c20 -2 38 2 43 10 8 10 11 10 15 1 2 -8 22
-13 44 -13 36 0 41 4 69 48 16 26 30 57 30 70 0 12 5 22 10 22 18 0 11 103 -8
126 -23 28 -55 44 -85 44 -25 0 -25 1 -20 63 6 63 13 86 35 122 28 43 52 57
60 35 2 -6 26 -12 55 -13 74 -3 95 20 122 131 23 96 29 255 10 296 -9 19 -8
29 5 47 9 13 16 34 16 46 0 13 4 23 10 23 5 0 12 16 16 35 3 19 10 35 14 35 5
0 11 22 15 50 4 27 11 52 15 55 12 7 23 100 15 133 -3 16 -19 44 -35 62 -25
28 -36 33 -77 34 -30 0 -53 6 -60 16 -15 18 -17 166 -3 175 6 3 10 14 10 24 0
14 7 16 35 13 49 -6 105 6 105 22 0 8 7 16 15 20 25 9 20 180 -7 269 -11 40
-24 74 -28 77 -4 3 -10 22 -14 43 -4 20 -11 37 -16 37 -14 0 -12 54 2 68 14
14 15 277 0 295 -5 7 -12 28 -16 47 -10 60 -79 85 -164 61 -30 -9 -32 -8 -39
17 -3 15 -12 32 -18 39 -17 16 -27 143 -14 160 6 7 24 13 39 13 16 0 42 12 59
26 28 23 31 32 31 79 0 30 -4 56 -9 60 -5 3 -13 19 -16 36 -7 33 -40 94 -62
117 -7 7 -13 20 -13 28 0 8 -7 17 -15 20 -8 4 -15 10 -15 15 0 10 -40 70 -53
80 -4 3 -10 30 -14 60 -3 30 -9 59 -13 64 -5 6 -11 31 -15 58 -4 26 -11 50
-16 53 -5 3 -9 12 -9 20 0 28 -53 128 -83 157 -28 27 -34 29 -80 24 -32 -4
-57 -14 -69 -27 -10 -11 -22 -20 -27 -20 -11 0 -41 34 -41 48 0 6 -9 16 -20
22 -11 6 -20 19 -20 30 0 10 -4 20 -9 22 -5 2 -12 19 -16 39 -6 33 -4 36 29
54 20 11 36 25 36 31 0 7 7 14 15 18 17 6 21 71 6 81 -5 3 -12 18 -16 33 -3
15 -19 42 -35 59 -17 18 -30 36 -30 41 0 5 -21 23 -46 41 -25 18 -55 43 -68
55 -12 11 -39 35 -59 51 -21 17 -45 46 -55 65 -33 65 -86 155 -94 158 -4 2 -8
9 -8 16 0 30 -98 126 -127 126 -13 0 -23 5 -23 10 0 6 -11 10 -25 10 -14 0
-25 -4 -25 -10 0 -5 -5 -10 -10 -10 -12 0 -57 -45 -63 -63 -4 -12 -117 39
-117 53 0 8 -31 48 -52 68 -21 19 -24 42 -6 42 7 0 23 12 35 27 35 40 32 113
-4 150 -36 37 -123 99 -134 95 -5 -1 -9 2 -9 7 0 5 -13 12 -30 16 -16 4 -30
11 -30 16 0 5 -7 9 -16 9 -9 0 -32 7 -52 16 -21 9 -52 22 -69 30 -18 7 -33 17
-33 21 -1 28 -172 177 -241 211 -90 43 -167 19 -184 -58 -6 -29 -8 -30 -48
-24 -23 4 -48 11 -54 17 -7 5 -13 6 -13 3 0 -10 -58 24 -88 52 l-25 22 21 30
c21 28 28 73 16 116 -7 25 -105 84 -154 92 -19 3 -37 8 -40 12 -3 4 -54 12
-115 18 -133 14 -131 13 -175 37 -19 11 -46 25 -60 32 -14 7 -32 17 -40 22 -8
5 -33 17 -55 27 -22 11 -43 22 -46 26 -3 5 -39 11 -81 14 -62 6 -81 4 -105
-11 -33 -19 -54 -68 -46 -107 l4 -23 -93 6 c-98 5 -176 32 -147 50 9 5 14 25
13 58 -2 42 -7 55 -30 75 -16 14 -35 26 -41 26 -7 0 -13 5 -13 10 0 12 -217
14 -224 1 -3 -4 -38 -12 -78 -16 -40 -3 -78 -11 -85 -16 -7 -7 -13 -6 -17 0
-4 5 -28 13 -54 17 -26 3 -52 11 -59 16 -14 11 -271 21 -292 12z m174 -94 c17
-4 22 -8 13 -9 -10 0 -18 -5 -18 -10 0 -5 -24 -12 -52 -15 -29 -4 -58 -12 -64
-17 -11 -9 -26 9 -28 36 -2 21 90 30 149 15z m600 -10 c20 -7 26 -16 23 -33
-2 -18 -9 -22 -37 -20 -18 1 -36 5 -40 10 -3 5 -33 15 -66 23 -56 13 -58 14
-30 21 46 10 121 10 150 -1z m-1171 -36 c9 -3 16 -17 16 -30 0 -24 -1 -24 -97
-23 -54 1 -86 4 -70 6 15 2 27 8 27 13 0 5 20 12 45 16 25 3 48 10 51 15 6 11
8 11 28 3z m879 -28 c18 -8 48 -17 67 -20 19 -3 48 -13 63 -21 16 -8 47 -20
70 -27 l42 -11 -30 -8 c-16 -3 -71 -7 -122 -8 -52 0 -95 -6 -98 -12 -7 -11
-125 -9 -125 2 0 3 -46 9 -102 13 -56 4 -107 11 -114 17 -6 5 -14 6 -17 2 -4
-3 -7 -2 -7 3 0 14 48 32 125 45 39 7 72 16 75 20 15 21 130 24 173 5z m812
-27 c22 -6 49 -18 60 -25 17 -12 10 -14 -63 -14 -81 0 -82 0 -82 25 0 29 20
32 85 14z m-1761 -95 c37 -6 44 -9 35 -20 -6 -8 -19 -14 -28 -14 -9 0 -26 -6
-37 -14 -11 -8 -37 -18 -59 -22 -21 -4 -50 -13 -64 -20 -14 -8 -33 -14 -43
-14 -9 0 -18 -5 -20 -10 -2 -6 -28 -13 -58 -17 -30 -3 -59 -9 -65 -13 -5 -4
-46 -11 -91 -15 -44 -4 -87 -10 -94 -15 -15 -9 -40 -2 -40 11 0 5 6 9 13 9 7
0 23 9 35 20 12 12 22 18 22 15 0 -3 15 5 33 19 19 15 38 26 44 26 5 0 18 9
28 20 10 11 26 20 37 20 10 0 18 4 18 8 0 21 53 31 166 31 67 1 142 -2 168 -5z
m-498 -13 c-3 -4 -19 -14 -36 -21 -16 -7 -30 -16 -30 -21 0 -5 -7 -9 -15 -9
-8 0 -15 -5 -15 -11 0 -5 -4 -8 -9 -4 -6 3 -14 -2 -19 -10 -12 -23 -42 -8 -42
21 0 19 8 25 43 35 23 6 49 15 57 19 20 12 73 12 66 1z m895 -18 l64 -8 -65
-6 c-36 -4 -94 -10 -130 -14 -71 -8 -75 3 -7 22 53 14 61 15 138 6z m1053 -22
c3 -5 22 -12 43 -16 20 -4 46 -13 57 -21 19 -13 16 -14 -29 -8 -28 4 -52 10
-55 14 -3 4 -50 11 -105 16 -83 7 -93 9 -60 15 61 10 143 10 149 0z m586 -1
c0 -5 6 -10 13 -10 8 0 24 -9 37 -20 13 -11 28 -20 34 -20 6 0 25 -13 43 -28
55 -47 77 -62 88 -62 7 0 20 -10 31 -21 l19 -22 -75 7 c-41 4 -77 11 -80 16
-3 4 -30 11 -60 15 -30 4 -60 12 -67 17 -6 5 -17 8 -25 7 -7 -1 -40 10 -73 25
-54 25 -89 40 -150 66 -11 4 -28 11 -37 14 -10 3 -18 10 -18 16 0 6 57 10 160
10 100 0 160 -4 160 -10z m305 -36 c17 -4 34 -13 38 -21 5 -7 13 -11 18 -7 7
4 9 -3 7 -17 -4 -29 -30 -36 -51 -14 -9 8 -20 15 -26 15 -6 0 -11 7 -11 15 0
8 -8 15 -17 15 -10 0 -29 9 -42 19 l-25 19 40 -9 c21 -4 53 -11 69 -15z
m-1320 -15 c7 -7 -30 -44 -73 -73 -23 -16 -42 -33 -42 -37 0 -5 -7 -9 -15 -9
-8 0 -15 -6 -16 -12 0 -10 -2 -10 -6 0 -2 6 -9 12 -15 12 -16 0 -118 103 -118
119 0 11 25 13 141 8 77 -2 142 -6 144 -8z m-267 -159 c32 -28 37 -37 26 -47
-7 -7 -17 -13 -23 -13 -6 0 -11 -5 -11 -10 0 -6 -8 -14 -17 -17 -10 -4 -34
-19 -53 -35 -73 -59 -145 -108 -156 -108 -7 0 -14 -4 -16 -8 -1 -5 -31 -28
-66 -52 l-62 -44 -33 17 c-17 9 -53 22 -79 29 -27 7 -48 16 -48 20 0 4 -8 8
-17 8 -10 1 -36 9 -58 20 -22 11 -50 19 -62 20 -13 0 -23 4 -23 9 0 5 -13 12
-30 16 -16 4 -30 11 -30 16 0 5 -7 9 -15 9 -27 0 -65 23 -64 39 0 9 20 43 45
76 24 33 49 70 54 83 5 12 14 22 19 22 5 0 11 8 13 18 5 16 22 21 107 30 56 7
117 12 135 12 18 0 36 3 40 8 4 4 67 12 139 17 l131 10 57 -55 c32 -30 75 -71
97 -90z m472 120 c0 -4 55 -12 123 -18 67 -6 136 -16 152 -21 29 -10 133 -30
168 -34 9 -1 17 -7 17 -14 0 -6 6 -16 13 -20 14 -9 32 -37 48 -73 5 -13 14
-27 18 -30 4 -3 20 -26 35 -51 28 -50 24 -59 -25 -59 -10 0 -19 -4 -19 -10 0
-5 -16 -12 -35 -16 -19 -3 -35 -10 -35 -15 0 -4 -20 -11 -45 -15 -25 -3 -47
-10 -50 -14 -2 -4 -32 -13 -65 -21 -33 -7 -60 -16 -60 -20 0 -4 -19 -10 -42
-14 -23 -4 -50 -12 -59 -18 -17 -10 -61 16 -159 95 -19 16 -39 32 -45 36 -22
17 -90 66 -93 68 -3 2 -5 11 -11 44 -1 3 -5 -1 -9 -8 -6 -9 -21 -2 -56 29
l-47 41 24 22 c13 11 56 46 95 76 40 30 72 58 72 62 0 4 20 7 45 6 25 -1 45
-5 45 -8z m-1300 -59 c0 -5 -7 -16 -15 -25 -8 -8 -15 -19 -15 -24 0 -5 -8 -18
-17 -30 -19 -21 -38 -47 -52 -71 -7 -11 -17 -10 -57 9 -68 31 -106 47 -127 54
-27 9 -12 23 33 31 22 4 40 10 40 15 0 7 44 19 145 39 57 12 65 12 65 2z
m-972 -48 c-3 -26 -8 -29 -73 -43 -38 -8 -76 -19 -82 -23 -8 -5 -13 -4 -13 2
0 6 4 11 8 11 5 0 22 11 38 25 16 14 35 25 42 25 6 0 12 4 12 9 0 10 22 18 53
20 14 1 18 -5 15 -26z m2947 -8 c39 -4 77 -13 86 -21 9 -8 40 -23 70 -34 30
-11 46 -19 37 -20 -10 0 -18 -4 -18 -10 0 -5 -6 -10 -12 -10 -7 -1 -31 -9 -53
-20 -22 -11 -46 -19 -52 -20 -7 0 -13 -4 -13 -10 0 -17 -30 -11 -37 8 -4 9
-12 21 -20 25 -7 4 -13 15 -13 22 0 8 -3 15 -7 15 -5 0 -21 24 -37 53 -16 28
-23 47 -15 41 8 -6 46 -15 84 -19z m-2525 -25 c0 -5 -8 -10 -17 -10 -15 0 -16
2 -3 10 19 12 20 12 20 0z m-62 -17 c-10 -2 -18 -8 -18 -13 0 -5 -17 -12 -37
-16 -21 -4 -40 -10 -43 -13 -9 -11 -92 -53 -96 -48 -5 5 64 59 96 74 26 13 61
20 95 20 16 1 17 0 3 -4z m3552 -49 c75 -52 92 -72 48 -55 -13 5 -51 17 -85
27 -65 20 -71 25 -50 49 15 17 41 11 87 -21z m-3312 9 c21 -9 41 -23 45 -30 4
-7 28 -18 52 -24 25 -6 45 -15 45 -19 0 -5 14 -11 30 -15 28 -6 43 -25 20 -25
-5 0 -10 -6 -10 -13 0 -8 -9 -25 -20 -38 -22 -26 -69 -86 -110 -140 -14 -19
-42 -52 -62 -75 -21 -23 -38 -44 -38 -48 0 -4 -15 -23 -34 -41 -32 -34 -35
-35 -110 -35 -42 0 -76 4 -76 9 0 4 -64 11 -142 15 -78 4 -148 12 -155 17 -6
6 -22 8 -34 4 -18 -6 -20 -4 -14 17 4 12 16 52 27 88 11 36 24 74 28 85 5 11
11 32 14 46 4 18 16 30 38 39 39 15 87 37 108 50 24 14 182 78 213 86 15 3 27
10 27 15 0 5 8 9 18 9 9 0 33 9 52 19 44 25 44 25 88 4z m2797 -3 c3 -5 1 -10
-4 -10 -6 0 -11 5 -11 10 0 6 2 10 4 10 3 0 8 -4 11 -10z m114 -36 c14 -8 32
-14 39 -14 7 0 34 -16 59 -35 45 -34 49 -50 5 -19 -12 8 -22 13 -22 10 0 -2
-20 6 -46 20 -25 13 -53 24 -62 24 -9 0 -30 9 -47 21 l-30 20 39 -7 c22 -4 51
-13 65 -20z m-3519 -13 c-6 -12 -14 -21 -18 -21 -4 0 -20 -11 -36 -25 -16 -14
-35 -25 -43 -25 -7 0 -13 -4 -13 -8 0 -10 -96 -82 -110 -82 -5 0 -10 -5 -10
-10 0 -6 -29 -24 -65 -41 -35 -16 -67 -34 -70 -40 -4 -5 -17 -9 -31 -9 -13 0
-24 -4 -24 -8 0 -11 -74 -36 -90 -30 -12 4 11 33 125 153 56 59 82 78 125 93
98 35 154 50 202 57 26 3 50 11 54 16 11 19 16 1 4 -20z m1982 -22 c21 -13 38
-26 38 -29 0 -3 25 -23 56 -45 31 -22 64 -47 74 -55 59 -54 120 -100 131 -100
7 0 4 -6 -6 -14 -11 -8 -23 -12 -28 -9 -4 2 -13 0 -20 -5 -7 -5 -33 -13 -59
-16 -27 -4 -48 -11 -48 -16 0 -5 -22 -12 -50 -16 -27 -4 -50 -10 -50 -14 0 -4
-20 -11 -45 -14 -24 -4 -47 -12 -51 -17 -4 -6 -10 -7 -17 0 -7 5 -29 12 -50
16 -20 4 -40 11 -43 16 -3 5 -13 9 -22 9 -9 0 -30 7 -46 15 -15 8 -32 15 -36
15 -5 0 -21 5 -37 12 -35 14 -29 12 -85 28 -44 11 -65 30 -35 30 11 0 93 53
107 70 14 17 178 130 188 130 7 0 12 7 12 15 0 8 7 15 15 15 8 0 15 5 15 11 0
5 4 8 9 4 5 -3 13 0 16 5 5 8 11 7 18 -2 7 -8 29 -25 49 -39z m1348 2 c3 -5
16 -12 30 -16 29 -8 293 -137 300 -146 3 -3 16 -10 30 -14 41 -13 70 -36 70
-56 0 -10 4 -20 9 -24 5 -3 13 -30 16 -60 4 -30 11 -55 15 -55 4 0 12 -22 17
-49 l10 -49 -51 -10 c-62 -14 -447 -26 -462 -15 -14 11 -94 118 -94 127 0 4
-5 12 -10 19 -6 7 -24 27 -40 46 -17 19 -30 38 -30 42 0 4 -6 14 -12 21 -7 7
-26 33 -43 58 -16 25 -36 51 -42 58 -20 21 -16 52 7 52 11 0 20 4 20 9 0 5 15
12 33 15 17 4 57 20 87 36 44 24 63 29 95 24 22 -3 42 -9 45 -13z m540 -60 c0
-5 18 -11 40 -15 23 -3 49 -10 58 -15 9 -5 49 -19 87 -31 61 -19 78 -30 130
-84 33 -35 67 -73 75 -86 8 -12 30 -40 48 -62 17 -22 32 -43 32 -48 0 -10
-154 68 -158 81 -2 5 -8 9 -14 9 -29 0 -121 57 -179 110 -35 33 -67 59 -71 60
-4 0 -24 16 -45 35 -21 19 -41 35 -45 35 -5 0 -8 5 -8 10 0 6 11 10 25 10 14
0 25 -4 25 -9z m-2922 -32 c2 -5 11 -9 20 -9 9 0 39 -11 67 -24 91 -44 123
-56 144 -56 12 0 21 -4 21 -8 0 -4 32 -19 70 -32 39 -13 70 -28 70 -32 0 -4
-4 -8 -9 -8 -12 0 -145 -82 -149 -92 -2 -5 -8 -8 -13 -8 -4 0 -42 -23 -83 -51
l-75 -50 -123 5 c-68 3 -158 9 -201 13 l-79 8 24 22 c33 31 48 51 48 63 0 5 4
10 10 10 5 0 15 11 22 24 15 26 59 83 101 127 15 16 27 33 27 38 0 5 7 15 16
22 9 7 20 24 25 37 8 20 14 23 37 17 15 -3 29 -11 30 -16z m-1482 -63 c-25
-25 -46 -49 -46 -55 0 -12 -32 -31 -53 -31 -16 0 -27 27 -20 48 3 6 11 12 18
12 8 0 18 6 22 13 10 15 115 69 121 62 3 -2 -16 -25 -42 -49z m3498 -10 c15
-24 35 -52 45 -63 10 -10 29 -38 44 -63 15 -25 38 -58 51 -74 14 -16 28 -36
31 -46 3 -10 12 -21 20 -24 8 -3 15 -12 15 -20 0 -7 7 -16 15 -20 8 -3 15 -10
15 -16 0 -6 -69 -10 -199 -10 -164 0 -202 3 -215 15 -8 8 -20 15 -26 15 -6 0
-13 7 -16 15 -4 8 -12 15 -20 15 -13 0 -38 17 -76 53 -10 9 -22 17 -27 17 -5
0 -22 14 -38 30 -15 17 -33 30 -39 30 -6 0 -21 8 -32 19 -22 18 -22 18 43 40
36 11 72 21 80 21 8 0 15 4 15 9 0 5 20 12 45 15 24 4 47 11 50 15 2 5 37 19
77 32 40 12 77 26 83 31 18 16 31 8 59 -36z m-3012 -39 c-6 -12 -13 -39 -17
-59 -3 -21 -10 -38 -14 -38 -5 0 -12 -16 -16 -36 l-6 -37 -47 7 c-69 9 -152
28 -152 35 1 11 112 91 126 91 8 0 14 5 14 12 0 6 3 9 6 6 3 -3 29 7 57 22 29
15 54 26 56 24 2 -2 -1 -14 -7 -27z m4490 -90 c31 -31 37 -42 27 -53 -6 -8
-16 -14 -21 -14 -15 0 -38 27 -35 42 2 7 2 10 0 6 -6 -9 -43 24 -43 38 0 7 -7
14 -15 18 -8 3 -15 10 -15 15 0 18 63 -14 102 -52z m-530 1 c2 -6 15 -13 28
-15 13 -2 31 -10 40 -18 9 -8 19 -15 23 -15 3 0 22 -15 40 -32 19 -18 45 -41
58 -50 22 -17 22 -18 3 -18 -11 0 -24 -4 -29 -9 -8 -8 -95 -15 -142 -12 -7 1
-15 18 -18 39 -4 20 -10 46 -15 57 -15 36 -19 65 -7 58 6 -4 8 0 4 10 -3 10
-2 17 2 17 5 0 11 -5 13 -12z m-2382 -27 c3 -4 23 -13 45 -19 134 -37 199 -72
134 -72 -10 0 -19 -4 -19 -10 0 -5 -27 -12 -60 -16 -33 -4 -60 -10 -60 -14 0
-17 -122 -26 -260 -21 l-145 6 65 38 c84 48 101 59 117 74 7 6 22 15 33 18 11
3 20 10 20 15 0 5 8 11 18 13 22 7 105 -3 112 -12z m878 -8 c30 -31 105 -83
119 -83 7 0 13 -4 13 -9 0 -4 24 -25 53 -45 l52 -37 -171 3 c-108 2 -176 7
-185 14 -8 7 -33 15 -56 19 -24 4 -43 11 -43 15 0 5 -20 12 -45 16 -25 3 -45
11 -45 16 0 5 -4 6 -10 3 -5 -3 -10 -3 -10 2 0 11 77 40 127 48 24 4 45 11 48
15 3 5 26 12 50 16 25 3 48 10 51 15 9 14 33 10 52 -8z m-2784 -92 c4 -5 40
-12 81 -16 42 -4 78 -11 81 -16 3 -5 21 -9 40 -9 24 0 34 -5 34 -15 0 -8 -4
-15 -10 -15 -5 0 -10 -10 -10 -23 0 -12 -6 -32 -14 -43 -8 -11 -17 -37 -21
-57 -4 -20 -11 -37 -15 -37 -4 0 -10 -10 -13 -22 -5 -20 -24 -71 -67 -185 -6
-18 -16 -33 -21 -33 -5 0 -9 -9 -9 -20 0 -13 -7 -20 -18 -20 -10 0 -22 -4 -27
-9 -6 -5 -31 -12 -56 -15 -25 -3 -68 -12 -95 -20 -27 -8 -76 -17 -109 -21 -33
-4 -67 -11 -75 -15 -8 -4 -44 -11 -78 -15 -62 -7 -64 -7 -53 13 6 12 11 72 11
139 l0 118 37 30 c68 55 118 100 126 113 4 6 12 12 17 12 5 0 24 13 42 30 91
81 193 159 210 160 4 0 9 -4 12 -9z m-240 -47 c-22 -19 -51 -43 -66 -52 -16
-9 -28 -20 -28 -24 0 -4 -9 -12 -20 -18 -30 -16 -24 3 16 48 20 23 48 44 65
47 16 4 29 10 29 15 0 5 8 11 18 13 9 3 19 5 21 6 2 0 -14 -15 -35 -35z m2601
-14 l40 -19 -105 4 c-150 6 -150 6 -100 20 65 19 119 17 165 -5z m-2949 -4
c24 -24 16 -40 -33 -66 -27 -14 -50 -27 -53 -30 -11 -12 -60 -40 -60 -35 0 18
110 145 126 145 3 0 12 -6 20 -14z m1029 -2 c51 -8 224 -22 293 -25 57 -2 71
-11 50 -33 -36 -37 -78 -86 -78 -92 0 -3 -17 -23 -37 -43 -21 -21 -60 -63 -86
-94 -38 -45 -54 -57 -78 -57 -16 0 -29 -4 -29 -8 0 -5 -40 -14 -89 -21 -49 -7
-92 -15 -96 -19 -8 -9 -128 -31 -135 -25 -2 2 0 7 6 11 6 4 14 19 18 35 3 15
11 27 16 27 6 0 10 8 10 18 1 9 9 35 20 57 11 22 19 47 20 56 0 8 7 24 15 35
8 10 15 26 15 34 0 8 6 27 14 42 8 15 17 41 21 59 10 46 25 59 60 53 17 -2 48
-7 70 -10z m718 -56 c48 0 87 -5 87 -9 0 -5 -6 -9 -13 -9 -6 0 -34 -16 -61
-35 -27 -19 -54 -35 -59 -35 -5 0 -15 -6 -21 -14 -21 -27 -125 -75 -175 -82
-28 -4 -51 -10 -51 -14 0 -3 -6 -7 -12 -8 -74 -9 -133 -23 -139 -34 -5 -7 -9
-8 -9 -2 0 5 20 32 45 58 25 27 45 51 45 54 0 3 7 12 15 21 70 76 83 92 89
107 5 14 17 15 89 10 45 -4 121 -7 170 -8z m3473 -13 c10 -14 36 -37 56 -50
20 -14 74 -60 120 -104 46 -43 109 -103 141 -134 l58 -55 -10 -58 c-6 -32 -11
-90 -11 -129 l0 -72 -27 4 c-16 3 -37 8 -48 13 -11 5 -36 11 -55 14 -94 14
-116 19 -125 27 -6 4 -34 11 -63 15 -29 4 -55 10 -58 15 -2 5 -27 11 -55 15
-27 4 -53 12 -57 18 -9 14 -30 71 -44 116 -5 19 -14 39 -19 45 -5 5 -9 16 -9
25 -1 8 -9 33 -20 55 -11 22 -19 49 -20 61 0 11 -4 24 -9 30 -6 5 -16 39 -24
75 l-13 67 50 6 c28 3 74 10 101 15 94 16 120 13 141 -14z m183 -19 c19 -14
40 -26 46 -26 12 0 45 -36 45 -50 0 -5 9 -14 20 -20 11 -6 20 -15 20 -20 0 -6
9 -19 20 -30 11 -11 20 -25 20 -30 0 -8 -31 22 -86 82 -7 7 -29 27 -50 45
-107 89 -128 118 -35 49z m-3309 0 c-14 -8 -45 -17 -70 -21 -25 -4 -49 -10
-55 -14 -19 -11 -95 -28 -95 -20 0 4 14 10 30 14 17 4 30 10 30 15 0 18 68 40
125 39 56 0 58 -1 35 -13z m830 -15 c366 -8 450 -14 450 -32 0 -5 12 -9 28 -9
15 -1 45 -9 67 -20 22 -11 48 -19 57 -20 9 0 19 -4 23 -9 3 -6 26 -13 50 -17
25 -3 45 -10 45 -14 0 -5 26 -14 58 -20 31 -7 62 -16 67 -20 6 -5 31 -11 58
-15 26 -4 47 -11 47 -15 0 -5 18 -11 40 -15 22 -4 42 -10 45 -15 3 -5 24 -11
48 -15 57 -9 97 -28 192 -92 44 -29 89 -59 99 -66 10 -6 31 -22 45 -33 32 -26
160 -114 165 -114 3 0 39 -22 80 -50 42 -27 80 -50 85 -50 5 0 11 -4 13 -8 3
-10 104 -82 113 -82 8 0 54 -53 55 -63 0 -4 18 -24 40 -46 22 -21 40 -42 40
-45 0 -4 11 -19 25 -34 14 -15 25 -31 25 -35 0 -5 14 -20 30 -34 17 -13 30
-30 30 -35 0 -6 13 -25 30 -42 49 -52 70 -76 70 -81 0 -2 15 -19 33 -38 17
-18 39 -44 47 -56 8 -13 20 -29 27 -36 61 -64 123 -143 123 -157 0 -10 5 -18
10 -18 6 0 10 -9 10 -21 0 -21 4 -32 54 -141 14 -31 26 -64 26 -72 0 -9 4 -16
9 -16 5 0 12 -14 16 -30 4 -17 17 -49 29 -73 13 -23 29 -60 36 -82 7 -22 19
-49 26 -60 8 -11 14 -29 14 -42 0 -12 4 -24 9 -28 9 -5 29 -43 66 -128 9 -20
19 -76 22 -125 3 -48 9 -91 13 -97 5 -5 11 -64 15 -130 4 -66 11 -125 15 -130
5 -6 12 -55 16 -110 3 -55 11 -106 17 -113 14 -18 15 -285 1 -303 -6 -8 -14
-52 -18 -99 -4 -46 -11 -87 -15 -90 -4 -3 -11 -39 -15 -80 -4 -41 -12 -80 -16
-85 -5 -6 -10 -36 -12 -67 -2 -31 -6 -54 -10 -51 -5 2 -8 10 -8 16 0 7 -14 28
-31 47 -34 37 -53 86 -38 95 11 8 12 48 0 60 -5 6 -14 46 -20 90 -6 43 -16 82
-20 85 -5 3 -13 18 -16 33 -4 15 -11 27 -16 27 -5 0 -9 4 -9 10 0 5 -13 22
-29 37 -87 83 -165 133 -207 133 -28 0 -34 17 -34 96 0 35 -4 64 -9 64 -5 0
-12 51 -16 113 -13 211 -49 292 -152 342 l-38 18 2 181 c3 217 -6 276 -44 312
-37 35 -69 50 -120 59 -24 4 -45 11 -49 16 -3 5 -20 9 -38 9 -18 0 -53 3 -78
6 -41 6 -45 9 -45 34 0 24 -66 139 -112 194 -40 47 -105 106 -117 106 -8 0
-14 4 -14 10 0 5 -17 12 -37 16 -21 4 -42 10 -48 14 -5 4 -35 13 -66 19 -42 9
-66 21 -93 47 -20 19 -36 41 -36 48 0 8 -7 16 -15 20 -8 3 -15 13 -15 22 0 9
-13 36 -30 61 -16 24 -30 47 -30 51 0 5 -22 29 -50 55 -27 26 -50 44 -50 41 0
-4 -7 -1 -14 6 -8 6 -34 21 -57 33 -37 19 -44 28 -54 70 -7 27 -24 61 -39 75
-23 23 -35 27 -85 27 -55 0 -61 -2 -95 -38 -20 -21 -36 -45 -36 -53 0 -13 -19
-14 -132 -9 -73 4 -142 11 -153 16 -11 5 -141 16 -290 24 -348 20 -496 33
-516 44 -9 5 -54 12 -100 16 -46 4 -91 9 -99 13 -23 9 -141 33 -180 37 -19 1
-43 6 -52 10 -10 4 -63 5 -118 3 -73 -2 -100 0 -100 9 0 16 -40 83 -65 108
-15 15 -33 20 -83 20 -61 0 -64 -1 -104 -44 l-42 -43 -4 -114 -4 -113 -49 -40
c-26 -23 -53 -41 -59 -41 -6 0 -13 -7 -16 -15 -4 -8 -12 -15 -19 -15 -6 0 -22
-9 -35 -20 -13 -11 -27 -20 -31 -20 -5 0 -22 -13 -39 -30 -17 -16 -37 -30 -44
-30 -8 0 -16 -7 -20 -15 -3 -8 -12 -15 -21 -15 -8 0 -15 -5 -15 -10 0 -6 -12
-16 -27 -23 -16 -6 -32 -17 -36 -24 -4 -7 -15 -13 -22 -13 -8 0 -15 -4 -15 -9
0 -8 -56 -47 -85 -60 -5 -2 -23 -17 -40 -33 -16 -15 -33 -28 -37 -28 -4 0 -13
-6 -20 -12 -8 -7 -21 -17 -29 -23 -75 -49 -129 -87 -143 -100 -9 -9 -16 -14
-16 -11 0 3 -15 -8 -32 -25 -18 -16 -36 -29 -41 -29 -5 0 -14 -6 -21 -12 -8
-7 -24 -20 -36 -28 -12 -8 -33 -23 -45 -32 -13 -10 -28 -18 -34 -18 -6 0 -11
-4 -11 -9 0 -5 -13 -14 -30 -21 -16 -7 -30 -16 -30 -20 0 -4 -11 -12 -25 -18
-51 -23 -157 -127 -181 -177 -18 -38 -19 -73 -19 -802 l0 -761 27 -25 c17 -16
30 -41 34 -66 l7 -41 48 0 49 0 0 -40 c0 -22 5 -40 10 -40 13 0 13 -97 0 -102
-5 -1 -13 -45 -16 -95 -4 -51 -11 -93 -15 -93 -12 0 -12 -67 -1 -74 5 -3 12
-54 15 -113 3 -60 11 -109 17 -111 5 -2 10 -12 10 -23 0 -18 52 -124 71 -144
5 -5 9 -16 9 -25 0 -13 -18 -15 -127 -13 -71 1 -131 2 -135 2 -3 1 -9 15 -13
31 -4 17 -11 30 -15 30 -5 0 -12 16 -16 35 -3 19 -10 35 -14 35 -5 0 -11 14
-15 30 -4 17 -10 30 -15 30 -4 0 -11 18 -15 40 -4 22 -10 40 -15 40 -4 0 -13
21 -19 46 -7 26 -18 53 -26 61 -8 8 -15 25 -15 39 0 13 -4 24 -9 24 -5 0 -12
13 -16 30 -4 16 -10 30 -15 30 -4 0 -11 11 -14 24 -3 13 -22 58 -41 99 -19 41
-35 82 -35 91 0 9 -4 16 -9 16 -5 0 -12 51 -16 113 -4 61 -11 117 -15 122 -4
6 -10 62 -14 125 -4 63 -13 153 -21 200 -7 47 -17 127 -20 178 -4 50 -11 92
-16 92 -11 0 -12 47 -1 52 4 2 15 55 25 118 27 175 41 254 48 265 4 6 10 54
14 108 4 53 11 97 15 97 4 0 11 43 15 95 4 52 10 95 15 95 4 0 10 18 13 40 3
22 19 62 36 90 17 27 33 61 37 75 3 14 10 25 14 25 5 0 11 14 15 30 4 17 10
30 14 30 4 0 14 18 21 40 7 22 17 40 22 40 4 0 8 9 8 19 0 11 7 26 15 34 7 8
17 26 21 41 3 14 10 26 15 26 5 0 9 5 9 11 0 17 108 248 121 259 3 3 9 18 13
33 4 16 23 43 42 60 49 43 111 109 137 144 12 17 45 52 72 79 28 28 70 74 95
103 25 29 61 70 80 91 146 159 176 190 187 190 6 0 18 6 25 14 8 7 24 17 36
20 12 4 22 12 22 17 0 5 6 9 14 9 7 0 25 9 40 21 30 23 122 77 149 85 9 4 17
10 17 15 0 5 7 9 15 9 9 0 18 6 21 14 3 8 19 18 35 21 16 4 29 10 29 14 0 4
12 13 27 20 34 16 166 102 175 116 4 5 8 6 8 1 0 -4 15 3 33 16 17 14 43 28
57 32 14 4 34 11 45 16 11 5 43 14 70 19 154 32 211 45 215 52 3 3 30 10 60
14 30 4 58 12 61 17 4 6 27 13 53 15 25 3 46 9 46 13 0 5 19 11 43 15 23 4 47
11 52 15 6 4 43 13 83 20 40 7 75 18 79 23 3 5 31 6 62 2 31 -3 225 -9 431
-14z m1903 -11 c8 -16 18 -47 22 -70 4 -22 11 -40 16 -40 5 0 9 -10 9 -22 1
-13 9 -41 20 -63 11 -22 19 -50 20 -62 0 -12 4 -24 9 -27 4 -3 14 -27 21 -53
7 -27 17 -53 22 -59 6 -8 -7 -8 -44 1 -65 15 -158 44 -178 54 -9 5 -35 12 -58
16 -23 4 -44 11 -48 16 -3 5 -15 9 -27 9 -14 0 -29 11 -39 28 -18 29 -41 59
-89 110 -16 18 -27 37 -24 41 3 5 -4 12 -15 16 -11 3 -20 10 -20 14 0 4 -9 18
-20 31 -11 13 -20 29 -20 37 0 7 -4 13 -10 13 -5 0 -10 5 -10 10 0 6 63 10
169 10 103 0 172 4 176 10 3 6 28 10 55 10 44 0 50 -3 63 -30z m-522 -85 c35
-47 67 -85 71 -85 4 0 8 -7 8 -15 0 -7 6 -18 14 -22 7 -4 18 -18 24 -30 11
-19 9 -21 -11 -16 -12 3 -26 9 -32 13 -5 4 -29 11 -52 15 -24 4 -45 10 -48 15
-3 4 -20 11 -39 14 -20 4 -48 13 -63 21 -15 8 -32 15 -36 15 -4 0 -17 8 -28
18 -10 11 -31 25 -46 33 -15 8 -37 23 -49 34 -12 12 -35 27 -51 35 -15 8 -36
22 -45 30 -15 13 2 15 152 12 l169 -3 62 -84z m-513 58 c20 -15 39 -28 41 -30
2 -2 2 -6 -2 -9 -3 -3 -20 1 -38 10 -18 9 -39 16 -48 16 -9 0 -43 9 -76 19
l-60 19 73 1 c65 1 78 -2 110 -26z m2019 -27 c10 -13 25 -34 33 -46 8 -12 21
-28 28 -36 23 -24 12 -26 -25 -3 -37 23 -50 32 -76 55 -7 5 -20 13 -29 17 -22
8 -23 21 -2 41 18 19 42 9 71 -28z m-5780 11 c-7 -12 -18 -29 -25 -37 -7 -8
-37 -49 -67 -90 -46 -63 -190 -220 -202 -220 -2 0 -16 -13 -32 -29 -15 -16
-40 -36 -54 -46 -24 -16 -27 -16 -27 -1 0 9 9 33 20 53 11 21 20 43 20 50 0 7
5 13 10 13 6 0 10 6 10 13 0 7 8 28 19 47 10 19 22 46 26 59 10 31 34 57 63
65 12 4 22 11 22 15 0 4 27 21 60 37 33 16 60 32 60 37 0 4 10 12 23 18 12 5
33 16 47 24 35 20 41 19 27 -8z m5766 -174 c4 -7 15 -13 22 -13 8 0 15 -4 15
-10 0 -5 11 -12 25 -16 14 -3 25 -10 25 -15 0 -5 7 -12 17 -16 42 -16 123
-130 123 -175 0 -8 4 -18 9 -23 12 -14 62 -148 56 -153 -6 -7 -235 224 -235
237 0 6 -4 11 -10 11 -5 0 -12 11 -16 25 -3 14 -11 29 -18 33 -15 10 -56 69
-56 82 0 5 -4 10 -10 10 -5 0 -12 11 -16 25 -3 14 -10 25 -15 25 -5 0 -9 7 -9
16 0 13 7 11 43 -8 23 -13 46 -29 50 -35z m-5753 -132 l0 -98 -46 -7 c-26 -3
-66 -6 -88 -6 -23 0 -47 -5 -53 -11 -8 -8 -13 -8 -17 0 -4 6 -2 11 3 11 6 0
11 7 11 15 0 8 9 23 20 32 11 10 20 22 20 27 0 11 129 136 141 136 5 0 9 -44
9 -99z m1260 69 c-14 -10 -61 -40 -105 -66 -44 -26 -89 -54 -100 -63 -20 -16
6 18 48 61 9 10 17 22 17 28 0 5 19 14 43 21 23 6 58 17 77 25 47 18 49 17 20
-6z m-1712 -27 c-2 -5 -9 -19 -15 -33 -61 -141 -62 -142 -98 -116 -19 14 -19
15 -2 33 9 11 17 24 17 30 0 5 21 29 46 51 43 40 59 51 52 35z m4962 -105 c47
-46 63 -68 57 -75 -3 -3 -14 5 -24 16 -9 12 -23 21 -30 21 -7 0 -13 4 -13 9 0
5 -13 14 -30 20 -16 5 -30 15 -30 20 0 6 -6 11 -13 11 -8 0 -23 8 -35 18 -11
9 -29 22 -39 29 -10 6 14 1 52 -12 47 -15 81 -34 105 -57z m-3530 62 c0 -5 -7
-10 -15 -10 -8 0 -15 -6 -15 -12 0 -7 -22 -36 -48 -65 -26 -28 -65 -72 -87
-97 -22 -26 -49 -49 -60 -52 -11 -4 -22 -10 -25 -13 -3 -4 -41 -27 -85 -50
-44 -24 -88 -50 -97 -59 -28 -24 -23 -5 33 114 10 23 19 46 19 53 0 6 4 11 10
11 5 0 12 16 16 35 3 19 10 35 15 35 5 0 9 6 9 13 0 28 20 38 106 53 49 9 93
20 99 25 5 5 25 9 45 10 19 0 44 4 55 9 11 5 21 9 23 9 1 1 2 -3 2 -9z m4734
-95 c27 -26 76 -98 76 -112 0 -6 7 -13 15 -17 8 -3 15 -12 15 -20 0 -8 6 -17
13 -19 6 -3 -10 -3 -38 0 -27 3 -58 10 -67 14 -9 5 -33 9 -52 9 -41 0 -41 0
-37 152 l1 58 26 -23 c14 -12 36 -31 48 -42z m-1039 6 c3 -5 30 -13 60 -16 30
-4 55 -11 55 -15 0 -4 21 -11 48 -15 26 -4 52 -10 57 -15 6 -4 25 -11 43 -15
18 -4 32 -13 32 -21 0 -8 4 -14 9 -14 5 0 12 -18 16 -40 4 -22 10 -40 15 -40
4 0 13 -22 20 -50 7 -27 16 -50 21 -50 5 0 9 -8 9 -17 0 -10 7 -30 14 -45 17
-33 8 -36 -24 -8 -13 11 -27 20 -33 20 -12 0 -168 109 -187 131 -8 9 -26 31
-40 49 -14 17 -38 46 -55 65 -16 19 -34 40 -40 48 -5 7 -19 23 -29 35 -11 12
-14 22 -8 22 6 0 13 -4 17 -9z m-4156 -68 c-16 -32 -29 -65 -29 -75 0 -9 -3
-18 -7 -20 -8 -3 -39 -65 -79 -154 -19 -42 -84 -94 -116 -94 -9 0 -18 -7 -22
-15 -3 -8 -12 -15 -21 -15 -8 0 -15 -4 -15 -10 0 -5 -18 -15 -40 -21 -22 -7
-40 -16 -40 -21 0 -4 -7 -8 -15 -8 -7 0 -18 -6 -22 -12 -4 -7 -23 -21 -41 -30
l-32 -17 6 82 c4 45 10 86 15 92 5 5 9 41 9 80 0 40 3 106 6 148 l7 77 48 0
c26 0 50 4 53 8 3 5 55 14 115 21 61 8 111 18 111 22 0 5 17 9 38 10 20 1 48
4 62 8 14 5 28 6 31 5 4 -2 -6 -30 -22 -61z m5596 25 c88 -100 102 -131 63
-141 -29 -8 -35 -3 -42 38 -4 19 -11 35 -15 35 -5 0 -11 18 -15 39 -3 22 -12
42 -18 44 -7 3 -8 6 -3 6 6 1 19 -9 30 -21z m-6138 -197 c-4 -71 -11 -151 -17
-178 -5 -26 -12 -83 -16 -126 -3 -42 -10 -75 -15 -71 -5 3 -9 1 -9 -3 0 -5
-25 -20 -55 -33 -30 -13 -55 -27 -55 -31 0 -4 -10 -11 -22 -14 -11 -4 -42 -20
-68 -35 -26 -15 -58 -31 -71 -35 -13 -4 -26 -10 -29 -14 -7 -9 -119 -61 -130
-61 -6 0 -10 13 -10 29 0 17 -4 32 -9 36 -5 3 -13 30 -16 60 -4 31 -11 57 -15
60 -5 3 -11 24 -15 47 -5 30 -4 45 6 53 16 12 35 40 49 73 5 12 14 22 19 22 5
0 12 11 15 25 4 14 11 25 16 25 6 0 10 7 10 15 0 8 16 32 35 54 19 21 35 43
35 49 0 6 6 15 13 19 6 4 20 24 30 44 45 88 100 111 286 117 l44 2 -6 -129z
m5208 99 c39 -6 79 -14 90 -19 11 -5 54 -15 95 -22 41 -7 80 -16 85 -20 6 -4
24 -9 40 -11 l30 -3 8 -95 c4 -52 10 -155 13 -227 4 -115 3 -133 -10 -133 -10
0 -13 6 -10 15 5 11 -1 15 -19 15 -14 0 -32 7 -40 15 -8 7 -27 17 -42 21 -14
4 -29 13 -32 20 -3 8 -9 14 -14 14 -17 0 -159 104 -159 117 0 7 -4 13 -9 13
-4 0 -14 21 -21 48 -8 26 -17 49 -20 52 -9 6 -50 126 -50 144 0 8 -4 16 -9 18
-5 2 -12 19 -16 38 -6 29 -5 33 7 23 7 -7 45 -17 83 -23z m-5657 -112 c-12
-18 -25 -35 -29 -38 -3 -3 -16 -23 -29 -45 -46 -76 -65 -82 -30 -10 11 22 19
44 20 48 0 10 83 87 88 82 2 -2 -7 -18 -20 -37z m6227 -8 c6 -4 43 -11 83 -15
65 -6 73 -9 78 -31 3 -13 10 -24 14 -24 5 0 12 -10 16 -22 3 -12 12 -28 18
-35 26 -29 33 -41 56 -88 13 -27 30 -58 39 -67 32 -35 40 -47 47 -72 3 -14 10
-26 14 -26 5 0 14 -16 20 -35 6 -19 15 -35 20 -35 12 0 20 -39 9 -46 -6 -3 -7
-14 -4 -25 4 -11 2 -19 -4 -19 -6 0 -11 -7 -11 -15 0 -9 -8 -41 -19 -73 -10
-31 -21 -69 -25 -84 -5 -21 -10 -25 -28 -20 -13 3 -27 11 -31 19 -4 7 -14 13
-21 13 -8 0 -19 7 -26 15 -7 8 -20 15 -30 15 -10 0 -20 7 -24 15 -3 8 -12 15
-19 15 -8 0 -20 7 -27 15 -7 8 -20 15 -29 15 -9 0 -24 9 -34 20 -9 11 -24 20
-32 20 -8 0 -15 5 -15 10 0 6 5 10 10 10 6 0 10 5 10 10 0 6 -7 10 -15 10 -8
0 -15 -7 -15 -17 0 -14 -2 -14 -17 -1 -10 8 -35 22 -56 32 -21 10 -42 27 -46
39 -5 12 -12 129 -16 259 l-7 237 54 -6 c29 -3 58 -9 63 -13z m-6545 -108 c19
-18 18 -19 -45 -85 -60 -62 -78 -71 -55 -29 5 9 17 35 26 57 15 34 42 72 52
74 2 1 12 -7 22 -17z m1334 -31 c-27 -28 -62 -66 -79 -87 -77 -94 -81 -94 -35
2 22 44 40 67 63 78 18 9 43 25 57 36 47 37 43 20 -6 -29z m5561 -1 c3 -11 10
-20 15 -20 12 0 50 -68 50 -92 0 -17 -2 -18 -15 -8 -8 7 -15 18 -15 25 0 6 -9
22 -20 35 -11 13 -20 29 -20 37 0 7 -4 13 -10 13 -5 0 -10 7 -10 15 0 22 18
18 25 -5z m-1005 -105 c51 -31 60 -41 66 -73 4 -20 13 -43 21 -50 7 -7 13 -20
13 -28 0 -15 -38 25 -106 111 -21 27 -45 56 -51 63 -7 7 -13 19 -12 25 0 9 2
9 6 0 2 -7 31 -29 63 -48z m-5829 -33 c-6 -2 -11 -11 -11 -21 0 -9 -6 -25 -14
-36 -7 -11 -17 -35 -21 -52 -3 -18 -10 -33 -15 -33 -4 0 -11 -23 -15 -50 -4
-28 -12 -53 -18 -58 -7 -4 -23 -28 -37 -54 -13 -27 -28 -48 -32 -48 -5 0 -8
-6 -8 -14 0 -8 -6 -21 -13 -28 -7 -7 -18 -25 -24 -40 -7 -16 -17 -28 -23 -28
-5 0 -10 -6 -10 -14 0 -8 -6 -16 -14 -19 -9 -4 -13 2 -13 19 0 13 3 24 7 24 4
0 10 39 14 86 4 47 11 95 16 107 5 12 11 38 15 58 4 25 22 53 61 95 30 32 78
85 107 116 l52 57 3 -32 c2 -17 -1 -33 -7 -35z m1033 1 c-4 -16 -22 -57 -41
-93 -18 -36 -33 -71 -33 -77 0 -7 -4 -13 -10 -13 -5 0 -10 -10 -10 -22 0 -12
-22 -43 -52 -74 -59 -58 -139 -149 -151 -170 -4 -8 -13 -14 -19 -14 -7 0 -7 4
-1 13 6 6 13 55 17 107 4 52 11 99 17 105 5 5 9 31 9 57 0 37 4 50 18 55 9 3
28 14 42 23 14 10 47 30 73 45 27 15 70 40 95 55 26 16 48 29 50 29 1 1 -1
-11 -4 -26z m6134 -12 c12 -10 25 -32 28 -50 4 -17 10 -31 14 -31 4 0 10 -11
12 -25 3 -14 3 -25 0 -25 -10 0 -92 95 -98 114 -5 14 7 33 22 36 1 0 11 -8 22
-19z m-1122 -102 c3 -6 22 -17 40 -25 19 -8 34 -19 34 -24 0 -6 6 -10 14 -10
7 0 19 -7 26 -15 7 -8 21 -15 31 -15 11 0 19 -4 19 -10 0 -5 7 -10 15 -10 8 0
23 -10 35 -22 11 -12 21 -18 21 -12 1 5 6 -25 11 -66 5 -41 11 -88 13 -105 2
-16 7 -59 11 -95 l7 -65 -37 34 c-20 19 -36 41 -36 48 0 8 -7 16 -15 19 -8 4
-15 12 -15 20 0 8 -7 14 -15 14 -8 0 -15 4 -15 8 0 5 -16 26 -35 48 -19 21
-38 54 -41 72 -3 17 -10 32 -14 32 -5 0 -12 15 -15 33 -4 17 -11 34 -14 37
-13 9 -50 120 -41 120 5 0 12 -5 16 -11z m1054 -41 c18 -23 68 -83 81 -97 62
-66 83 -105 87 -165 2 -34 8 -65 12 -71 11 -15 24 -175 14 -175 -5 0 -14 4
-20 8 -12 8 -54 93 -54 110 0 7 -4 12 -10 12 -5 0 -12 11 -16 25 -3 14 -9 25
-13 25 -13 0 -91 208 -91 242 0 9 -4 18 -9 20 -5 2 -13 25 -17 53 -7 48 -6 49
12 35 10 -8 21 -18 24 -22z m-7010 -48 c0 -15 5 -31 10 -36 6 -6 13 -33 16
-60 6 -45 4 -52 -18 -66 -13 -9 -44 -22 -69 -29 -24 -7 -46 -16 -49 -19 -3 -4
-12 -9 -21 -12 -14 -6 -15 -2 -7 33 6 21 14 39 18 39 4 0 10 18 14 40 3 22 10
40 14 40 4 0 18 21 31 48 36 68 42 76 52 60 5 -7 9 -24 9 -38z m565 -11 c-4
-12 -13 -74 -21 -138 -28 -240 -23 -222 -92 -290 -34 -33 -62 -64 -62 -67 0
-4 -25 -31 -55 -61 -30 -30 -55 -58 -55 -63 0 -12 -32 -22 -40 -13 -4 4 -12
42 -18 83 -6 41 -18 104 -26 140 -9 36 -15 79 -16 97 0 17 -4 33 -8 35 -5 2
-12 24 -15 49 -7 48 -7 48 43 63 18 5 76 31 80 35 5 6 34 23 114 65 27 14 54
30 60 35 6 5 23 12 39 16 15 4 27 11 27 15 0 8 18 15 43 19 5 0 5 -9 2 -20z
m6358 -159 c15 -28 27 -57 27 -65 0 -8 4 -15 10 -15 5 0 13 -18 16 -40 4 -22
11 -43 15 -46 11 -7 12 -54 1 -54 -5 0 -17 7 -28 15 -10 8 -26 15 -35 15 -9 0
-19 6 -22 13 -3 7 -23 19 -46 26 -24 7 -41 18 -41 26 0 8 4 15 9 15 5 0 12 20
15 45 4 25 11 45 17 45 5 0 9 9 9 19 0 24 10 51 19 51 3 0 18 -23 34 -50z
m-7359 -12 c-4 -29 -8 -62 -9 -73 -3 -42 -17 -65 -37 -65 -19 0 -20 5 -16 51
3 28 9 54 14 58 12 8 33 42 40 64 12 34 16 16 8 -35z m6761 42 c4 -6 11 -8 16
-5 5 4 9 2 9 -4 0 -5 9 -12 19 -16 11 -3 35 -16 54 -29 19 -13 46 -27 58 -31
13 -5 38 -18 54 -30 17 -12 56 -35 88 -51 31 -15 57 -32 57 -36 0 -4 7 -8 15
-8 17 0 19 -13 5 -38 -9 -16 -14 -36 -46 -187 -8 -38 -19 -78 -24 -87 -6 -10
-10 -30 -11 -45 0 -16 -6 -43 -13 -61 l-12 -34 -42 49 c-23 26 -57 64 -75 84
-35 38 -122 137 -136 155 -5 6 -13 87 -17 180 -3 93 -11 177 -16 187 -9 18 6
25 17 7z m-6229 -267 c3 -35 10 -63 14 -63 4 0 11 -35 15 -77 4 -43 10 -82 15
-88 4 -5 10 -32 14 -60 l6 -50 -86 -80 c-47 -44 -124 -117 -171 -162 -47 -46
-89 -83 -94 -83 -5 0 -9 -4 -9 -10 0 -5 -9 -2 -20 7 -11 10 -20 23 -20 30 0 7
-4 13 -8 13 -4 0 -13 12 -20 28 -21 45 -45 87 -54 93 -20 13 -20 79 0 145 12
38 24 86 28 107 3 20 10 39 14 42 5 3 11 23 15 45 4 22 11 40 16 40 5 0 9 10
9 23 0 12 7 35 15 51 8 16 18 46 21 67 5 30 13 41 39 53 18 9 38 16 44 16 6 0
25 6 43 14 18 8 40 17 48 21 8 3 31 14 49 24 l35 18 17 -51 c10 -28 21 -79 25
-113z m578 31 c-20 -38 -43 -80 -50 -94 -8 -14 -14 -29 -14 -35 0 -5 -8 -19
-16 -30 -16 -19 -16 -19 -8 5 4 14 7 37 6 52 -1 15 2 29 8 33 5 3 10 13 10 22
0 8 20 36 45 61 25 25 45 50 45 55 0 6 2 8 5 5 3 -3 -11 -36 -31 -74z m6666
-27 c0 -9 5 -19 10 -22 16 -10 12 -75 -6 -82 -26 -10 -35 11 -41 93 l-6 79 22
-27 c11 -14 21 -33 21 -41z m-514 -6 c8 -7 46 -30 120 -69 10 -6 36 -18 56
-27 27 -11 40 -24 44 -43 3 -15 12 -41 20 -59 8 -17 14 -42 14 -56 0 -14 7
-38 15 -53 8 -16 15 -38 15 -50 0 -11 3 -24 7 -28 4 -4 13 -31 20 -59 6 -29
19 -83 27 -121 l16 -69 -50 -69 c-27 -37 -50 -73 -50 -78 0 -5 -6 -13 -13 -17
-7 -4 -20 -18 -29 -31 l-15 -22 -36 37 c-65 69 -87 96 -87 104 0 5 -5 9 -10 9
-10 0 -120 109 -178 177 -29 34 -31 42 -26 83 4 25 10 47 14 50 4 3 10 29 13
59 4 30 10 57 15 60 5 3 13 36 16 74 4 37 11 67 15 67 5 0 11 19 14 43 11 80
29 110 53 88z m-604 -113 c19 -23 28 -46 33 -90 4 -33 4 -62 1 -65 -3 -4 -6 3
-6 15 0 12 -4 22 -9 22 -5 0 -11 9 -14 20 -3 11 -1 20 4 20 5 0 9 7 9 15 0 8
-8 15 -17 15 -17 1 -42 44 -58 100 l-7 25 18 -23 c11 -13 31 -38 46 -54z
m-6560 17 c-2 -14 -8 -25 -12 -25 -5 0 -11 -22 -15 -50 -4 -27 -11 -50 -15
-50 -5 0 -11 -12 -14 -27 -2 -16 -3 1 -2 36 2 39 7 66 14 69 7 2 12 8 12 13 0
9 29 59 35 59 1 0 0 -11 -3 -25z m822 -97 c-4 -35 -10 -67 -15 -72 -5 -6 -9
-29 -9 -52 0 -49 -20 -144 -31 -144 -4 0 -10 -11 -13 -25 -4 -14 -11 -25 -16
-25 -6 0 -10 -6 -10 -14 0 -8 -17 -49 -39 -91 l-38 -77 -7 34 c-4 18 -12 79
-18 136 -6 56 -15 102 -20 102 -4 0 -8 13 -8 29 0 30 32 74 99 135 18 17 54
52 79 79 25 26 47 47 49 47 1 0 0 -28 -3 -62z m6751 -208 c2 -36 1 -51 -2 -35
-2 17 -8 35 -13 40 -4 6 -11 26 -15 45 -4 19 -11 40 -15 45 -4 6 -10 28 -14
50 -7 39 -6 39 25 -20 23 -45 32 -76 34 -125z m-853 111 c5 -15 70 -92 126
-150 47 -49 52 -58 52 -100 0 -25 -7 -77 -16 -116 -9 -38 -19 -89 -23 -113
-10 -54 -15 -58 -32 -24 -8 15 -18 30 -22 33 -5 3 -11 25 -14 48 -3 22 -10 41
-14 41 -5 0 -9 5 -9 11 0 6 -8 23 -19 37 -18 26 -29 82 -33 170 -1 23 -6 42
-10 42 -4 0 -8 29 -8 65 0 36 4 65 9 65 5 0 11 -4 13 -9z m-6979 -46 c-1 -16
-7 -31 -13 -33 -5 -2 -10 -10 -10 -17 0 -8 -6 -20 -13 -27 -8 -7 -20 -31 -28
-53 l-14 -40 -3 47 c-2 26 2 56 7 67 6 11 11 33 11 49 0 36 8 44 40 40 21 -3
25 -8 23 -33z m97 -85 c0 -10 -4 -21 -9 -24 -4 -3 -10 -71 -13 -151 -3 -80
-11 -151 -17 -158 -5 -7 -16 -45 -22 -85 -7 -40 -15 -72 -19 -72 -4 0 -10 -19
-13 -41 -3 -23 -11 -46 -19 -50 -10 -7 -14 3 -16 43 -2 29 -7 57 -12 63 -4 5
-11 57 -15 116 -6 96 -5 109 14 144 12 22 21 45 21 52 0 6 3 13 8 15 4 2 27
42 50 91 41 81 62 101 62 57z m696 -131 c31 -212 35 -255 30 -293 -2 -21 -8
-42 -13 -45 -4 -3 -21 -33 -37 -66 -16 -33 -32 -62 -35 -65 -4 -3 -25 -43 -49
-89 -23 -46 -42 -77 -42 -68 0 10 -4 17 -10 17 -5 0 -12 16 -16 35 -3 19 -10
35 -15 35 -9 0 -89 159 -89 178 0 7 -4 12 -10 12 -5 0 -12 11 -16 25 -3 14
-10 25 -15 25 -5 0 -9 9 -9 19 0 11 -7 26 -15 35 -8 8 -15 19 -15 24 0 5 36
42 81 83 45 41 120 113 167 161 48 48 88 86 89 84 2 -2 10 -50 19 -107z m7282
29 c-10 -7 -10 -11 0 -15 7 -3 12 -23 12 -49 0 -52 -16 -51 -26 1 -3 19 -10
35 -14 35 -5 0 -3 11 3 24 7 14 17 21 25 18 11 -4 11 -6 0 -14z m-7838 -95 c0
-7 4 -13 9 -13 5 0 13 -10 17 -22 4 -13 15 -34 25 -47 31 -39 23 -56 -56 -120
l-75 -61 0 52 c0 67 18 180 31 193 5 5 9 22 9 39 0 28 0 29 20 11 11 -10 20
-24 20 -32z m7720 20 c0 -10 7 -29 14 -43 32 -55 56 -113 51 -120 -3 -5 -1
-11 5 -15 5 -3 10 -15 10 -25 0 -10 6 -20 13 -23 15 -5 15 -216 0 -226 -6 -3
-13 -35 -16 -70 -4 -35 -10 -67 -13 -70 -10 -10 -22 22 -29 75 -3 30 -10 56
-15 59 -5 3 -12 30 -15 60 -4 31 -11 58 -16 61 -13 7 -12 354 1 354 6 0 10 -8
10 -17z m-670 -50 c0 -7 3 -12 8 -11 4 2 25 -17 47 -41 22 -24 66 -69 98 -101
31 -32 57 -65 57 -74 0 -9 7 -16 15 -16 31 0 71 -61 48 -72 -5 -1 -21 -29 -38
-60 -16 -32 -33 -58 -37 -58 -5 0 -8 -5 -8 -10 0 -12 -41 -73 -52 -78 -5 -2
-8 -9 -8 -15 0 -7 -10 -30 -21 -52 -12 -22 -30 -55 -39 -73 l-18 -32 -25 52
c-76 159 -107 227 -107 236 0 6 -6 12 -12 15 -16 5 -16 166 0 176 5 3 13 36
16 74 4 37 11 67 16 67 4 0 10 27 14 60 7 57 7 59 26 42 11 -9 20 -22 20 -29z
m-6305 -172 c-4 -34 -11 -64 -16 -67 -5 -3 -10 -29 -11 -57 -1 -47 -2 -48 -5
-12 -3 22 -9 44 -14 50 -5 5 -9 19 -9 31 0 24 50 127 58 120 2 -3 1 -32 -3
-65z m6852 -61 c3 -44 10 -83 15 -86 11 -7 10 -55 -1 -73 -8 -12 -12 -12 -26
2 -8 9 -15 27 -14 39 4 39 -1 58 -12 58 -7 0 -9 -10 -7 -25 9 -44 -20 -32 -69
29 -16 18 -17 46 -2 46 5 0 15 14 20 30 6 17 15 30 20 30 5 0 9 5 9 12 0 6 7
19 16 29 27 30 44 1 51 -91z m-7458 20 c3 -3 19 -32 36 -65 16 -33 32 -62 35
-65 4 -3 20 -32 37 -65 16 -33 42 -83 57 -111 14 -29 26 -59 26 -68 0 -9 5
-16 10 -16 21 0 9 -52 -26 -117 -21 -38 -44 -81 -52 -98 -9 -16 -21 -34 -29
-38 -7 -4 -13 -14 -13 -22 0 -7 -3 -15 -7 -17 -5 -1 -21 -29 -38 -60 -16 -32
-33 -58 -37 -58 -4 0 -8 -8 -8 -17 0 -10 -7 -26 -14 -36 -12 -16 -17 -13 -60
33 -26 27 -49 50 -51 50 -5 0 -38 27 -81 67 l-25 23 5 212 c2 117 7 240 11
274 7 60 7 61 66 104 32 23 59 47 59 51 0 5 4 9 10 9 5 0 24 14 42 32 23 23
33 27 36 17 3 -8 8 -16 11 -19z m-500 -148 c1 -50 -1 -53 -21 -50 -16 2 -24
12 -29 36 -4 18 -3 34 1 37 4 3 11 26 15 51 11 75 19 84 27 29 3 -27 7 -74 7
-103z m7163 76 c-1 -5 3 -8 8 -8 6 0 10 -9 10 -20 0 -11 5 -20 10 -20 6 0 10
-11 10 -24 0 -14 -4 -28 -10 -31 -5 -3 -10 -25 -11 -48 -1 -34 -4 -25 -20 48
-10 50 -18 106 -18 125 0 34 1 34 11 10 6 -14 10 -28 10 -32z m-6172 -133 c27
-56 27 -321 0 -380 -5 -11 -12 -46 -15 -77 -4 -32 -11 -58 -16 -58 -5 0 -9 5
-9 11 0 5 -11 35 -25 65 -14 30 -25 59 -25 64 0 6 -4 10 -9 10 -5 0 -12 14
-16 30 -4 17 -11 30 -15 30 -5 0 -12 16 -16 35 -3 19 -10 35 -15 35 -5 0 -9 7
-9 15 0 8 4 15 8 15 5 0 35 53 68 118 32 64 62 119 66 120 5 2 9 13 9 25 1 14
3 11 6 -8 2 -16 8 -39 13 -50z m6825 10 c20 -16 57 -49 82 -72 25 -24 49 -43
54 -43 6 0 9 -110 7 -281 -3 -267 -4 -281 -23 -291 -10 -6 -30 -22 -43 -35
-12 -13 -26 -23 -30 -23 -4 0 -29 -20 -57 -45 -48 -43 -50 -44 -67 -25 -10 11
-18 24 -18 30 0 5 -4 10 -8 10 -4 0 -20 26 -35 58 -15 31 -31 64 -36 72 -37
70 -51 101 -51 114 0 8 -3 16 -7 18 -14 5 -72 126 -65 133 10 10 59 95 76 131
8 17 19 35 25 38 6 4 11 15 11 25 0 10 9 28 20 41 11 13 20 29 20 37 0 7 4 13
9 13 5 0 11 9 14 20 4 14 10 18 22 14 14 -6 16 -3 11 14 -4 11 -2 23 4 27 6 4
15 18 21 32 11 29 16 28 64 -12z m467 -171 c-2 -7 -12 -10 -22 -7 -16 4 -18
12 -13 57 8 71 27 79 33 13 3 -29 4 -57 2 -63z m-1008 34 c-3 -5 2 -11 10 -14
9 -3 16 -10 16 -16 0 -8 37 -88 59 -128 5 -8 16 -32 25 -53 15 -35 15 -39 -7
-85 -12 -26 -24 -49 -27 -52 -10 -10 -50 -97 -50 -109 0 -6 -4 -11 -9 -11 -5
0 -13 -9 -16 -20 -3 -11 -12 -20 -20 -20 -10 0 -15 28 -19 108 -4 59 -11 115
-16 124 -12 22 -13 58 -2 58 5 0 15 53 22 118 13 124 18 142 31 121 4 -7 5
-17 3 -21z m-7105 -90 c-1 -84 -2 -89 -10 -48 -9 40 -3 140 7 140 2 0 4 -42 3
-92z m7908 -86 c10 -52 3 -159 -12 -187 l-17 -30 6 40 c3 22 6 78 6 124 0 75
8 100 17 53z m-7246 -145 c11 -21 19 -44 19 -52 0 -8 5 -15 10 -15 6 0 10 -6
10 -12 0 -7 12 -35 25 -63 14 -27 25 -57 25 -67 0 -9 6 -18 13 -21 9 -3 9 -7
1 -18 -6 -8 -15 -48 -19 -89 -3 -41 -13 -92 -20 -115 -8 -22 -17 -68 -21 -102
-3 -35 -9 -63 -13 -63 -3 0 -53 50 -111 111 -58 61 -131 137 -162 169 l-58 58
18 31 c9 17 20 31 25 31 4 0 7 7 7 15 0 9 6 18 14 21 8 3 18 19 21 35 4 16 11
29 15 29 5 0 15 18 21 40 7 22 16 40 21 40 4 0 8 7 8 15 0 9 7 18 15 21 8 4
15 12 15 19 0 8 6 20 14 27 7 8 17 25 21 38 13 43 29 42 49 -3 10 -23 27 -59
37 -80z m-841 33 c11 0 0 -84 -11 -88 -5 -2 -10 -25 -10 -50 -1 -28 -4 -37 -6
-22 -3 14 -8 30 -13 35 -4 6 -10 29 -14 53 -7 49 7 87 31 78 8 -3 18 -6 23 -6z
m110 -85 c0 -14 4 -25 9 -25 5 0 12 -21 16 -47 4 -27 13 -73 21 -103 17 -64
28 -410 13 -410 -5 0 -9 6 -9 13 0 14 -24 70 -41 97 -5 8 -12 23 -15 33 -4 9
-10 17 -15 17 -5 0 -9 10 -9 23 0 12 -8 34 -17 47 -14 20 -18 43 -16 109 1 45
7 88 12 95 5 6 12 48 16 94 6 59 11 82 21 82 8 0 14 -10 14 -25z m7404 -87
c21 -45 45 -88 52 -96 8 -7 14 -20 14 -28 0 -8 4 -14 9 -14 5 0 11 -8 15 -17
3 -10 10 -25 15 -33 5 -8 21 -40 34 -70 l25 -54 -26 -32 c-15 -18 -37 -33 -49
-33 -13 -1 -23 -6 -23 -12 0 -12 -156 -169 -169 -169 -4 0 -14 -11 -21 -25
-17 -32 -50 -34 -50 -2 0 13 -3 27 -7 31 -19 19 -52 336 -35 336 5 0 13 12 16
26 9 35 32 59 40 41 3 -6 3 0 0 15 -4 18 0 33 10 43 9 9 16 22 16 29 0 8 7 19
15 26 8 7 15 20 15 30 0 10 7 23 15 30 8 7 15 21 15 30 0 16 11 27 30 29 3 0
22 -36 44 -81z m-6429 -70 c13 -132 13 -168 0 -109 -4 17 -10 31 -15 31 -16 0
-22 61 -15 141 4 44 9 78 12 75 2 -2 11 -64 18 -138z m-693 -60 c16 -15 24
-29 18 -33 -5 -3 -10 -15 -10 -26 0 -10 -4 -19 -9 -19 -5 0 -22 -21 -37 -47
-46 -79 -52 -81 -59 -18 -4 30 -11 58 -16 61 -5 3 -9 49 -9 102 l0 96 47 -44
c26 -25 59 -57 75 -72z m7898 57 c0 -25 -5 -46 -12 -49 -10 -5 -10 -7 -1 -12
8 -3 9 -11 4 -22 -5 -9 -14 -28 -19 -42 -9 -21 -11 -14 -11 42 -1 37 -5 70
-11 73 -14 9 -12 53 3 58 32 10 47 -5 47 -48z m-124 -214 l7 -126 -42 -86
c-22 -47 -41 -91 -41 -97 0 -7 -11 -12 -25 -12 -19 0 -25 -5 -25 -21 0 -17 3
-19 14 -10 12 10 13 9 9 -8 -3 -11 -12 -22 -20 -25 -13 -6 -14 12 -8 146 4 84
11 158 15 163 5 6 12 34 16 63 3 28 10 52 14 52 5 0 11 23 15 50 4 28 11 47
16 44 5 -3 9 10 9 29 0 18 3 37 8 41 14 15 31 -77 38 -203z m-985 116 c6 -44
3 -60 -18 -105 -30 -61 -49 -79 -39 -36 5 22 33 181 36 203 0 2 3 1 7 -2 4 -4
10 -31 14 -60z m-6637 -92 c25 -25 46 -48 46 -50 0 -6 81 -92 183 -195 47 -48
77 -86 77 -99 0 -12 -4 -21 -10 -21 -5 0 -10 -12 -10 -27 0 -16 -14 -82 -31
-148 -17 -66 -35 -140 -40 -165 -5 -25 -14 -53 -19 -62 -6 -10 -10 -27 -10
-38 0 -20 -24 -28 -35 -11 -3 5 -19 12 -35 16 -17 4 -30 10 -30 15 0 5 -13 11
-30 15 -16 4 -30 10 -30 15 0 5 -13 11 -30 15 -16 4 -30 11 -30 16 0 5 -3 8
-7 8 -23 -4 -31 5 -38 39 -4 20 -10 42 -15 47 -4 6 -15 42 -23 80 -31 136 -39
170 -48 180 -4 6 -11 34 -15 63 -3 28 -10 52 -14 52 -4 0 -10 15 -13 33 -5 31
24 97 43 97 4 0 11 11 14 25 4 14 10 25 15 25 5 0 14 14 21 30 7 17 16 30 21
30 5 0 9 5 9 12 0 8 26 43 36 47 1 1 23 -19 48 -44z m506 -53 c5 -13 10 -32
10 -43 0 -10 4 -19 9 -19 5 0 12 -13 16 -30 4 -16 11 -30 16 -30 5 0 9 -7 9
-16 0 -9 7 -30 15 -47 8 -18 19 -81 24 -142 4 -60 12 -118 16 -127 15 -36 -23
-18 -64 30 -55 65 -85 100 -123 141 -31 34 -31 35 -19 90 7 31 17 86 23 124 6
37 15 67 19 67 5 0 9 17 9 38 l0 37 15 -25 c8 -14 19 -35 25 -48z m6890 2 c0
-36 -5 -75 -12 -87 -7 -12 -13 -31 -15 -41 -4 -26 -9 -30 -28 -23 -8 4 -15 15
-15 25 0 10 -9 29 -20 42 -19 22 -29 87 -12 76 5 -3 15 6 22 19 7 14 22 25 32
25 10 0 18 7 18 15 0 8 7 15 15 15 12 0 15 -14 15 -66z m-721 -164 c1 -26 5
-50 10 -55 6 -6 13 -50 16 -100 l6 -90 -87 -90 c-48 -49 -91 -89 -96 -87 -4 1
-8 -5 -8 -13 0 -8 -7 -15 -15 -15 -16 0 -21 45 -6 54 5 3 12 43 16 88 4 46 11
88 15 93 4 6 10 27 14 47 6 35 8 37 37 31 30 -6 30 -5 26 28 -2 19 -9 33 -14
32 -11 -2 27 80 39 85 4 2 8 12 8 23 0 10 5 19 10 19 6 0 10 8 11 18 1 37 18
-23 18 -68z m542 23 c13 -26 30 -54 37 -61 6 -7 12 -17 12 -20 0 -4 12 -21 27
-37 23 -24 28 -38 26 -74 -1 -24 -6 -47 -11 -50 -5 -3 -13 -25 -17 -48 -4 -24
-10 -43 -15 -43 -4 0 -11 -20 -14 -45 -4 -25 -11 -45 -15 -45 -5 0 -11 -18
-15 -40 -3 -22 -13 -54 -21 -72 -8 -18 -24 -61 -36 -96 -18 -51 -27 -64 -48
-69 -14 -3 -35 -12 -47 -19 -11 -8 -36 -15 -56 -16 -20 -2 -34 -6 -32 -9 2 -3
-11 -13 -29 -21 -41 -20 -53 -9 -63 58 -4 27 -11 52 -15 55 -5 3 -12 41 -15
85 -4 43 -11 84 -15 90 -8 10 -28 133 -29 177 0 18 121 143 189 196 19 14 63
54 97 89 35 34 67 62 72 62 5 0 20 -21 33 -47z m-7684 -74 c3 -16 9 -29 14
-29 16 0 10 -15 -11 -27 -33 -21 -50 7 -50 85 l0 67 20 -33 c12 -19 24 -47 27
-63z m244 -234 c4 -5 10 -26 14 -45 l6 -35 -20 30 c-23 34 -28 53 -35 150 l-5
70 17 -80 c9 -44 20 -84 23 -90z m7862 113 c-4 -7 -10 -35 -13 -63 -4 -43 -8
-50 -25 -47 -11 2 -21 5 -23 6 -5 6 21 66 29 66 5 0 9 8 9 18 0 20 8 32 22 32
5 0 6 -6 1 -12z m-1323 -215 c-22 -43 -40 -86 -40 -95 0 -10 -4 -18 -9 -18 -5
0 -12 -13 -16 -30 -4 -16 -11 -30 -16 -30 -5 0 -9 -5 -9 -11 0 -18 -53 -129
-62 -129 -4 0 -8 -8 -8 -18 0 -11 -8 -29 -19 -40 -17 -21 -28 -22 -155 -22
-75 0 -136 4 -136 9 0 5 21 23 48 42 26 18 65 54 87 81 22 26 45 54 51 61 6 7
15 24 19 37 4 14 11 27 15 30 9 7 40 95 48 140 l7 35 65 -3 c60 -3 75 1 167
37 2 1 -15 -34 -37 -76z m1059 35 c-5 -18 -9 -46 -9 -63 0 -33 -48 -135 -63
-135 -6 0 -5 5 1 13 5 6 15 38 22 69 6 32 15 60 20 63 4 3 11 23 15 45 4 22
11 40 15 40 5 0 4 -15 -1 -32z m-6643 5 c4 -10 12 -32 20 -50 8 -17 14 -35 14
-40 1 -4 9 -26 20 -48 31 -64 23 -71 -20 -19 -35 43 -40 55 -40 101 0 29 -4
53 -10 53 -5 0 -10 5 -10 10 0 17 20 11 26 -7z m-921 -33 c3 -5 1 -10 -4 -10
-6 0 -11 5 -11 10 0 6 2 10 4 10 3 0 8 -4 11 -10z m4842 -110 l38 -35 137 -5
137 -5 25 -38 c14 -21 26 -40 26 -42 0 -8 97 -105 105 -105 10 0 45 -31 45
-39 0 -3 -235 -5 -521 -3 l-521 2 28 23 c16 12 36 31 45 42 10 11 29 34 43 50
15 17 34 47 43 68 9 20 20 37 24 37 4 0 10 19 14 43 4 23 11 44 15 47 4 3 69
3 143 0 l135 -5 39 -35z m1731 -29 c-3 -47 -10 -66 -37 -100 -18 -22 -40 -41
-49 -40 -11 0 -12 2 -4 6 6 2 12 10 12 16 0 6 8 19 17 29 13 14 14 21 5 30
-16 16 -15 28 1 28 7 0 21 20 32 45 11 25 22 45 24 45 2 0 1 -26 -1 -59z
m-3488 3 c0 -8 4 -14 9 -14 5 0 12 -13 16 -30 4 -16 11 -30 16 -30 5 0 13 -8
16 -17 12 -31 83 -108 118 -130 16 -9 -91 -12 -492 -12 -282 -1 -513 3 -513 7
0 5 9 19 19 31 11 12 33 50 51 85 l31 63 61 7 c34 3 65 12 70 19 12 19 306 17
318 -3 7 -11 31 -16 87 -18 76 -3 80 -2 127 32 48 35 66 38 66 10z m-3246 10
c12 -5 16 -21 16 -74 0 -38 5 -72 10 -75 12 -7 13 -25 3 -25 -10 1 -50 85 -59
122 -6 26 0 58 10 58 2 0 11 -3 20 -6z m7809 -210 c12 -4 12 -11 2 -40 -20
-59 -35 -65 -35 -13 0 55 5 64 33 53z m-1110 -54 c-3 -11 -12 -20 -19 -20 -17
0 -18 7 -1 25 17 20 26 18 20 -5z"/>
<path d="M10030 9640 c0 -5 7 -10 15 -10 8 0 15 5 15 10 0 6 -7 10 -15 10 -8
0 -15 -4 -15 -10z"/>
<path d="M10162 9338 c-14 -14 -16 -58 -2 -58 11 0 24 43 18 60 -2 7 -7 7 -16
-2z"/>
<path d="M10046 8614 c-9 -22 -8 -24 9 -24 8 0 15 9 15 20 0 24 -15 27 -24 4z"/>
<path d="M10130 7780 c0 -5 5 -10 10 -10 6 0 10 5 10 10 0 6 -4 10 -10 10 -5
0 -10 -4 -10 -10z"/>
<path d="M10301 7776 c-8 -10 -9 -16 -1 -21 5 -3 13 1 16 10 9 22 -1 29 -15
11z"/>
<path d="M10484 7089 c-3 -6 -1 -16 5 -22 8 -8 11 -5 11 11 0 24 -5 28 -16 11z"/>
<path d="M10310 7113 c0 -13 5 -23 10 -23 13 0 13 11 0 30 -8 12 -10 11 -10
-7z"/>
<path d="M10810 6861 c0 -5 6 -14 14 -20 16 -13 32 2 21 19 -8 12 -35 13 -35
1z"/>
<path d="M10847 6803 c-13 -12 -7 -63 7 -63 15 0 26 21 26 51 0 18 -20 26 -33
12z"/>
<path d="M10625 6860 c-3 -5 1 -10 10 -10 9 0 13 5 10 10 -3 6 -8 10 -10 10
-2 0 -7 -4 -10 -10z"/>
<path d="M9950 6630 c0 -5 5 -10 10 -10 6 0 10 5 10 10 0 6 -4 10 -10 10 -5 0
-10 -4 -10 -10z"/>
<path d="M9935 6541 c3 -6 -2 -14 -11 -19 -21 -11 -12 -42 12 -42 9 0 18 9 21
20 3 11 9 20 14 20 5 0 9 7 9 15 0 9 -10 15 -26 15 -14 0 -23 -4 -19 -9z"/>
<path d="M10350 6150 c0 -5 9 -10 20 -10 11 0 20 5 20 10 0 6 -9 10 -20 10
-11 0 -20 -4 -20 -10z"/>
<path d="M10380 6115 c0 -8 5 -15 10 -15 6 0 10 7 10 15 0 8 -4 15 -10 15 -5
0 -10 -7 -10 -15z"/>
<path d="M7595 6141 c-6 -11 9 -23 19 -14 9 9 7 23 -3 23 -6 0 -12 -4 -16 -9z"/>
<path d="M8303 6105 c-3 -9 -3 -19 1 -22 8 -9 37 18 30 28 -8 14 -24 11 -31
-6z"/>
<path d="M9660 10855 c0 -8 5 -15 10 -15 6 0 10 7 10 15 0 8 -4 15 -10 15 -5
0 -10 -7 -10 -15z"/>
<path d="M930 5668 c-11 -4 -47 -36 -80 -70 l-60 -63 0 -537 0 -536 71 -71 71
-71 465 0 464 0 72 72 72 73 3 118 c5 181 19 167 -153 167 l-144 0 -3 -67 -3
-68 -307 -3 -308 -2 0 390 0 390 310 0 309 0 3 -72 3 -73 137 -3 c169 -3 161
-11 156 167 l-3 127 -66 66 -66 66 -462 4 c-254 2 -471 0 -481 -4z"/>
<path d="M3045 5670 l-360 -5 -190 -193 -190 -193 -6 -62 c-11 -103 2 -881 15
-889 6 -4 70 -8 142 -8 117 0 132 2 136 18 2 9 4 97 4 194 l-1 178 310 0 310
0 0 -193 0 -192 139 -3 c105 -2 141 1 148 10 4 7 8 311 8 674 l0 662 -31 6
c-17 3 -41 5 -53 4 -11 -1 -183 -5 -381 -8z m167 -474 l-3 -193 -307 1 -307 1
4 59 c2 33 8 65 15 72 6 7 63 66 126 133 l115 120 180 1 180 0 -3 -194z"/>
<path d="M3940 5673 c-59 -2 -97 -8 -102 -16 -13 -21 -10 -1308 3 -1323 17
-21 272 -20 289 1 6 8 9 19 5 25 -3 5 -1 10 6 10 8 0 8 4 1 13 -6 7 -10 76
-10 170 l0 157 187 0 186 0 123 -124 122 -123 0 -57 c0 -84 5 -86 158 -86 109
0 131 3 136 16 3 9 6 73 6 144 l0 128 -55 55 c-30 30 -55 59 -55 65 0 6 25 36
55 67 l55 58 0 338 0 337 -27 33 c-16 19 -45 50 -67 71 l-38 38 -398 0 c-218
0 -417 2 -441 3 -24 2 -87 2 -139 0z m810 -478 l0 -195 -298 0 c-218 0 -301 3
-310 12 -16 16 -17 344 -1 354 8 4 7 9 -2 15 -8 5 120 9 299 9 l312 0 0 -195z"/>
<path d="M5900 5673 l-386 -3 -63 -66 -64 -65 0 -539 -1 -538 69 -71 69 -71
466 0 467 0 71 73 72 72 0 323 0 322 -317 -2 -318 -3 -3 -129 c-2 -113 -1
-130 15 -142 14 -11 55 -14 168 -13 l150 1 0 -104 0 -103 -302 -2 -301 -2 -4
182 c-1 100 -1 275 1 390 l3 207 302 -2 301 -3 1 -50 c2 -98 -2 -95 140 -95
69 0 134 5 145 10 17 10 19 22 19 148 l0 138 -29 29 c-16 17 -35 35 -43 42 -7
6 -24 23 -37 37 -18 20 -33 26 -65 26 -22 0 -63 2 -91 3 -27 2 -223 2 -435 0z"/>
<path d="M8974 5672 l-371 -2 -34 -34 c-19 -18 -49 -49 -66 -69 l-33 -36 0
-205 0 -204 61 -61 61 -62 -61 -59 -61 -58 0 -209 0 -209 70 -72 70 -72 466 0
466 0 69 70 69 70 0 209 0 209 -55 57 c-30 32 -55 61 -55 65 0 4 25 33 55 65
l55 57 0 208 0 208 -35 36 c-19 20 -35 41 -35 46 0 6 -5 10 -11 10 -6 0 -19
10 -28 21 -20 25 -20 25 -597 21z m419 -402 c-1 -63 -2 -118 -3 -122 0 -5
-139 -8 -310 -8 -241 0 -310 3 -310 13 0 6 -2 61 -3 120 -2 59 -1 110 2 113 2
2 144 3 315 2 l311 -3 -2 -115z m-5 -537 l-3 -118 -300 -3 c-165 -1 -304 -1
-310 2 -6 2 -9 48 -7 120 l3 116 310 0 310 0 -3 -117z"/>
<path d="M10140 5666 c-11 -5 -20 -13 -20 -17 0 -4 -22 -30 -50 -57 l-50 -49
0 -546 0 -545 67 -66 68 -66 465 0 466 0 72 73 72 72 0 268 0 267 -67 70 -66
70 -388 0 -389 0 -5 23 c-3 12 -5 67 -3 122 l3 100 307 3 307 2 -3 -50 c-2
-28 0 -53 5 -56 5 -3 9 -14 9 -25 0 -18 8 -19 131 -19 100 0 134 3 145 14 11
11 14 45 14 144 l0 130 -67 70 -68 71 -467 3 c-264 2 -476 -1 -488 -6z m791
-823 c-11 -5 -11 -7 0 -14 11 -6 11 -11 1 -21 -15 -15 -16 -130 -1 -145 9 -9
7 -16 -6 -30 -16 -16 -44 -18 -262 -22 -134 -2 -267 0 -296 3 l-52 7 0 114 0
115 315 -1 c173 0 309 -3 301 -6z"/>
<path d="M11958 5672 l-398 -2 0 -364 c0 -201 3 -371 6 -380 5 -14 55 -16 460
-16 l455 0 -3 -147 -3 -148 -307 -3 -308 -2 0 54 c0 90 7 86 -156 86 l-144 0
0 -144 0 -144 69 -71 69 -71 468 0 468 0 68 71 68 71 0 308 0 307 -67 66 -67
67 -388 0 -388 0 0 90 0 90 433 2 432 3 3 44 c2 24 -2 49 -7 54 -13 13 -15 84
-3 91 14 9 12 64 -3 76 -16 14 -175 16 -757 12z"/>
<path d="M13160 5672 c-15 -2 -51 -31 -92 -75 l-68 -71 1 -119 c0 -65 5 -130
11 -143 11 -24 14 -24 144 -24 156 0 160 3 150 96 l-6 54 310 0 310 0 0 -62
c-1 -63 -1 -63 -45 -95 -24 -18 -48 -33 -54 -33 -5 0 -11 -4 -13 -8 -1 -5 -49
-40 -105 -80 -55 -39 -107 -77 -115 -84 -20 -19 -76 -58 -83 -58 -4 0 -13 -6
-20 -12 -27 -24 -41 -34 -125 -93 -47 -33 -89 -65 -93 -72 -4 -7 -15 -13 -22
-13 -8 0 -15 -4 -15 -10 0 -5 -4 -9 -8 -7 -7 2 -60 -36 -96 -68 -6 -6 -34 -26
-63 -45 -30 -20 -54 -45 -58 -59 -9 -33 -4 -221 6 -248 l9 -23 590 0 c505 0
594 2 606 15 12 11 14 41 12 142 l-3 128 -355 5 -355 5 33 20 c17 10 32 23 32
27 0 4 5 8 11 8 11 0 82 50 87 63 2 4 8 7 13 7 5 0 17 8 27 18 10 9 29 24 42
32 12 8 33 23 45 33 13 9 28 17 34 17 6 0 11 4 11 8 0 5 29 27 64 51 35 23 73
50 84 59 11 9 30 24 42 32 12 8 28 21 36 28 7 6 17 12 23 12 5 0 14 6 18 13 9
13 68 57 78 57 4 0 13 6 21 14 11 12 14 54 14 213 l0 199 -69 72 -69 71 -453
3 c-250 2 -465 1 -479 0z"/>
<path d="M7038 5650 c-7 -11 -18 -20 -25 -20 -7 0 -13 -6 -13 -13 0 -6 -16
-25 -35 -41 l-35 -29 0 -545 0 -545 67 -68 67 -69 468 0 467 0 71 71 70 71 0
537 0 537 -68 67 -68 67 -477 0 c-466 0 -477 0 -489 -20z m802 -650 l0 -390
-307 2 -308 3 -2 388 -3 387 310 0 310 0 0 -390z"/>
<path d="M13380 4260 c0 -5 7 -10 15 -10 8 0 15 5 15 10 0 6 -7 10 -15 10 -8
0 -15 -4 -15 -10z"/>
<path d="M1415 4199 c-4 -12 -2 -26 5 -33 18 -18 12099 -21 12124 -3 13 10 16
20 12 35 l-7 22 -6064 0 -6064 0 -6 -21z"/>
<path d="M3735 3699 c-57 -13 -145 -59 -175 -91 -45 -50 -49 -56 -56 -82 -3
-14 -10 -26 -15 -26 -12 0 -12 -127 0 -134 5 -3 12 -21 15 -40 5 -23 25 -54
60 -90 29 -31 57 -56 62 -56 5 0 23 -8 39 -17 43 -23 217 -24 267 0 48 23 55
33 60 95 5 49 4 52 -18 52 -17 0 -28 -9 -37 -32 -22 -51 -51 -71 -112 -76 -81
-7 -122 4 -158 43 -55 59 -59 66 -64 106 -3 22 -10 42 -14 45 -14 8 -10 71 8
127 18 57 70 117 102 117 11 0 23 5 26 10 3 6 28 10 56 10 27 0 49 -4 49 -10
0 -5 8 -10 19 -10 25 0 67 -35 83 -68 8 -16 21 -27 33 -27 17 0 21 8 23 47 4
65 -22 94 -92 103 -108 13 -122 13 -161 4z"/>
<path d="M5696 3695 c-3 -9 -6 -48 -6 -87 0 -61 2 -69 18 -66 9 2 18 13 20 26
2 12 7 22 12 22 5 0 10 10 12 23 2 14 11 23 26 25 12 2 22 8 22 13 0 14 77 11
82 -3 3 -7 4 -110 4 -228 l-1 -215 -35 -5 c-32 -5 -36 -9 -31 -40 0 -7 42 -10
114 -8 104 3 112 4 112 23 0 15 -8 21 -32 23 l-33 3 0 218 c0 155 3 220 12
229 15 15 64 16 73 2 3 -5 14 -10 25 -10 21 0 30 -19 30 -66 0 -33 2 -35 28
-32 27 3 27 4 30 86 l3 84 -58 -8 c-71 -10 -334 -10 -384 0 -29 6 -37 4 -43
-9z"/>
<path d="M4403 3693 c-32 -6 -30 -33 2 -33 l25 0 0 -230 0 -230 -25 0 c-20 0
-25 -5 -25 -25 l0 -25 105 0 105 0 0 25 c0 21 -5 25 -30 25 l-30 0 0 100 c0
110 6 119 52 78 26 -24 108 -130 108 -141 0 -3 16 -24 37 -46 36 -40 37 -41
104 -41 52 0 68 4 73 16 9 23 9 22 -34 34 -45 12 -76 38 -109 93 -12 20 -26
37 -31 37 -5 0 -11 8 -15 19 -3 10 -21 34 -41 54 -41 41 -40 55 6 105 16 18
30 38 30 43 0 5 7 12 15 15 8 4 15 10 15 15 0 13 46 59 59 59 6 0 11 5 11 10
0 6 16 10 35 10 33 0 46 12 27 24 -16 10 -127 15 -166 8 -39 -7 -63 -32 -31
-32 35 0 2 -74 -73 -166 -5 -5 -15 -20 -21 -32 -6 -12 -21 -22 -31 -22 -18 0
-20 7 -20 94 0 115 4 126 41 126 28 0 39 13 20 24 -12 8 -160 14 -188 9z"/>
<path d="M5006 3685 c-24 -18 -20 -25 14 -25 l29 0 3 -207 c4 -253 4 -253 -28
-253 -19 0 -24 -5 -24 -25 l0 -26 103 3 c94 3 102 5 102 23 0 12 -9 21 -25 25
-39 9 -35 35 13 87 25 26 60 65 78 86 19 20 60 65 92 98 l57 60 0 -165 0 -166
-34 0 c-39 0 -53 -14 -36 -35 10 -11 38 -15 116 -15 l104 0 0 25 c0 20 -5 25
-24 25 -23 0 -24 3 -32 108 -5 59 -8 114 -6 122 1 8 4 58 6 110 2 52 5 101 5
108 1 7 14 12 32 12 38 0 34 21 -6 32 -31 8 -160 3 -187 -7 -29 -12 -20 -24
20 -27 54 -4 56 -37 4 -91 -22 -23 -72 -75 -111 -116 -39 -41 -82 -88 -95
-105 l-25 -31 -1 157 c0 86 3 163 6 172 4 10 18 16 41 16 37 0 43 20 7 27 -51
10 -183 9 -198 -2z"/>
<path d="M7042 3679 c-23 -11 -42 -23 -42 -28 0 -4 -9 -19 -21 -32 -32 -37
-21 -112 22 -150 18 -16 41 -29 51 -29 25 0 23 -7 -13 -44 -31 -33 -49 -61
-68 -104 -10 -22 -20 -35 -50 -68 -7 -8 -26 -18 -42 -21 -68 -13 -40 -53 36
-53 46 0 57 4 84 32 17 17 31 35 31 39 0 8 62 106 80 126 5 7 10 17 10 22 0
12 28 41 41 41 5 0 9 -49 9 -109 0 -102 -1 -109 -19 -104 -22 6 -34 -9 -25
-31 9 -24 199 -24 208 0 9 23 -2 34 -35 34 l-29 0 0 218 c0 235 2 242 52 242
15 0 28 4 28 9 0 18 -37 24 -150 27 -96 2 -122 -1 -158 -17z m114 -33 c10 -11
14 -40 14 -105 l0 -90 -32 11 c-52 17 -78 53 -78 109 0 37 5 53 22 69 26 23
54 26 74 6z"/>
<path d="M7891 3690 c-44 -6 -54 -30 -13 -30 18 0 32 -6 36 -16 16 -41 -3
-277 -24 -298 -6 -6 -10 -18 -10 -28 0 -35 -54 -77 -133 -102 -56 -18 -8 -80
56 -72 92 10 162 157 173 361 4 69 12 123 18 127 6 4 35 8 64 8 l52 0 0 -220
0 -220 -24 0 c-31 0 -42 -16 -25 -36 9 -11 33 -14 108 -12 88 3 96 5 96 23 0
14 -8 21 -26 23 -16 2 -29 11 -32 21 -2 10 -5 107 -6 216 -2 179 0 198 16 211
10 7 28 14 41 14 26 0 29 16 4 29 -18 9 -307 10 -371 1z"/>
<path d="M8406 3688 c-23 -13 -20 -28 7 -28 48 0 48 -3 45 -236 l-3 -219 -30
-5 c-21 -4 -31 -11 -33 -28 l-3 -22 190 0 c215 0 197 -8 203 90 3 52 2 55 -21
55 -18 0 -26 -7 -32 -27 -13 -49 -36 -63 -105 -63 -34 0 -65 3 -69 7 -4 3 -9
50 -12 102 l-6 96 67 0 c48 0 66 -4 66 -13 0 -16 37 -57 50 -57 6 0 10 37 10
85 0 85 0 85 -26 85 -17 0 -28 -6 -31 -20 -6 -22 -20 -28 -83 -32 l-45 -3 -3
91 -3 91 35 6 c18 3 52 3 75 0 35 -5 44 -11 57 -39 10 -21 24 -34 35 -34 16 0
19 8 19 54 0 33 -5 58 -12 63 -18 11 -322 12 -342 1z"/>
<path d="M8956 3691 c-44 -7 -62 -31 -23 -31 22 0 26 -5 31 -47 10 -74 14
-240 7 -328 -6 -79 -6 -80 -34 -83 -23 -3 -28 -8 -25 -25 3 -21 9 -22 114 -25
89 -2 114 0 123 12 18 22 5 36 -33 36 -19 0 -39 6 -45 14 -8 9 -11 75 -9 216
l3 203 42 12 c71 21 143 -15 143 -71 0 -29 14 -38 29 -20 7 9 11 40 9 78 l-3
63 -145 1 c-80 0 -163 -2 -184 -5z"/>
<path d="M9426 3692 c-39 -9 -46 -32 -11 -32 53 0 55 -10 55 -239 0 -217 -2
-229 -42 -223 -20 4 -30 -11 -22 -32 5 -14 22 -16 108 -14 93 3 101 5 101 23
0 14 -6 20 -22 19 -31 -1 -45 45 -42 135 2 65 4 71 23 71 12 -1 30 -12 41 -26
11 -14 30 -37 43 -51 12 -14 22 -32 22 -38 0 -7 7 -15 15 -19 8 -3 15 -12 15
-21 0 -8 4 -15 9 -15 6 0 18 -13 28 -30 9 -16 23 -30 30 -30 7 0 13 -5 13 -10
0 -7 25 -10 68 -8 59 3 67 5 67 23 0 14 -8 21 -27 23 -27 3 -86 54 -115 100
-23 36 -84 113 -105 132 -19 18 -11 38 34 81 15 16 28 32 28 36 0 13 76 93 88
93 7 0 12 5 12 10 0 6 14 10 30 10 32 0 38 11 16 29 -14 12 -175 9 -195 -3
-17 -11 -13 -26 7 -26 10 0 21 -3 25 -6 5 -5 -17 -49 -33 -64 -7 -7 -28 -40
-42 -67 -6 -13 -17 -23 -23 -23 -7 0 -15 -13 -18 -30 -5 -25 -11 -30 -34 -30
-20 0 -24 3 -14 9 7 5 11 13 7 19 -3 6 -9 41 -12 77 -8 82 6 115 48 115 34 0
36 13 6 27 -26 11 -139 14 -182 5z"/>
<path d="M10215 3693 c-11 -3 -24 -9 -29 -14 -6 -5 -17 -9 -26 -9 -10 0 -27
-9 -40 -20 -15 -13 -31 -18 -46 -14 -16 4 -24 2 -24 -6 0 -10 -3 -10 -15 0
-13 10 -15 9 -15 -9 0 -23 19 -28 38 -9 9 9 12 9 12 0 0 -6 -6 -15 -14 -19
-27 -16 -56 -103 -56 -168 0 -62 25 -139 57 -175 44 -49 80 -80 94 -80 8 0 21
-6 27 -12 15 -15 201 -16 211 -1 3 6 17 14 30 18 33 10 121 101 146 149 15 30
19 57 18 119 -1 44 -5 83 -10 86 -4 3 -17 23 -27 44 -19 38 -64 78 -123 110
-32 16 -155 23 -208 10z m105 -42 c0 -5 14 -11 30 -15 37 -7 99 -70 107 -109
3 -15 10 -30 14 -33 12 -7 12 -161 0 -168 -5 -3 -12 -21 -15 -39 -9 -48 -73
-87 -143 -87 -56 0 -123 22 -123 39 0 6 -7 11 -15 11 -8 0 -15 6 -15 14 0 7
-7 19 -15 26 -8 7 -17 27 -21 46 -3 19 -10 37 -15 40 -13 7 -11 154 1 154 6 0
10 8 10 17 0 29 44 82 72 89 15 3 30 10 33 15 8 12 95 12 95 0z"/>
<path d="M10736 3681 c-14 -16 -15 -23 -6 -41 6 -12 15 -87 19 -166 7 -143 15
-172 44 -161 11 4 16 39 21 149 4 78 12 147 17 153 15 15 10 57 -8 71 -26 19
-67 17 -87 -5z"/>
<path d="M6441 3626 c-17 -35 -31 -69 -31 -76 0 -6 -6 -24 -14 -38 -32 -63
-56 -120 -56 -136 0 -9 -4 -16 -9 -16 -5 0 -12 -16 -15 -35 -4 -19 -11 -35
-15 -35 -5 0 -12 -12 -16 -27 -7 -31 -37 -63 -57 -63 -7 0 -19 -4 -27 -9 -12
-8 -12 -12 -2 -25 19 -22 193 -23 211 -1 18 21 3 35 -37 35 l-36 0 6 42 c3 24
11 44 16 46 6 2 11 8 11 13 0 6 10 32 23 59 l22 48 64 4 c54 2 65 0 69 -14 2
-10 8 -18 13 -18 4 0 11 -16 15 -35 3 -19 9 -35 13 -35 8 0 51 -94 51 -110 0
-5 -7 -7 -15 -4 -21 9 -34 -3 -28 -26 5 -19 12 -20 102 -18 88 3 96 5 96 23 0
11 -4 20 -10 21 -24 2 -45 17 -51 37 -4 12 -13 27 -20 35 -8 7 -14 22 -14 33
0 10 -4 19 -10 19 -5 0 -10 6 -10 13 0 6 -11 35 -25 62 -13 28 -25 56 -25 63
0 6 -4 12 -10 12 -5 0 -10 8 -10 18 0 9 -10 33 -22 52 -12 19 -34 61 -50 93
-38 77 -56 76 -97 -7z m50 -133 c-25 -19 -36 -15 -37 12 -1 14 2 25 7 25 5 0
9 10 9 22 0 19 3 17 19 -12 17 -32 17 -36 2 -47z m19 -20 c0 -14 -8 -18 -35
-18 -38 0 -49 14 -12 16 12 1 25 1 30 0 4 0 7 4 7 9 0 6 2 10 5 10 3 0 5 -8 5
-17z"/>
<path d="M7530 3400 c-67 -10 -100 -27 -100 -49 0 -19 26 -37 45 -31 6 2 46 8
90 14 l80 11 3 33 c3 31 2 32 -35 31 -21 -1 -58 -5 -83 -9z"/>
<path d="M10730 3215 c-14 -27 -5 -46 32 -66 22 -12 78 17 78 41 -1 52 -85 71
-110 25z"/>
<path d="M10072 3193 c2 -9 9 -18 16 -21 18 -6 15 25 -4 32 -11 4 -14 1 -12
-11z"/>
</g>
</svg>
